<svg id="Capa_1" enable-background="new 0 0 426.731 426.731" height="512" viewBox="0 0 426.731 426.731" width="512" xmlns="http://www.w3.org/2000/svg"><g><path d="m388.366 402.849v.323c-.212 13.218-11.1 23.762-24.318 23.55-2.388-.038-4.758-.434-7.029-1.174-46.502-14.484-94.948-21.767-143.653-21.595-48.706-.172-97.151 7.111-143.653 21.595-12.57 4.094-26.079-2.777-30.173-15.347-.74-2.271-1.135-4.64-1.174-7.029v-.323c0-31.456 16.168-63.901 42.868-89.904 73.759-71.047 190.495-71.047 264.254 0 26.705 26.003 42.878 58.448 42.878 89.904z" fill="#62667c"/><path d="m345.493 312.945c-73.828 70.875-190.426 70.875-264.254 0 73.758-71.047 190.495-71.047 264.254 0z" fill="#4f5363"/><circle cx="213.366" cy="174.985" fill="#eeefee" r="174.985"/><path d="m213.366 277.451c-56.588-.003-102.458-45.878-102.456-102.466.003-56.588 45.878-102.458 102.466-102.456 56.585.003 102.456 45.875 102.456 102.461-.066 56.562-45.904 102.398-102.466 102.461z" fill="#62667c"/><path d="m213.366 250.589c-41.752-.003-75.597-33.852-75.594-75.604s33.852-75.597 75.604-75.594c41.748.003 75.591 33.846 75.594 75.594-.046 41.736-33.868 75.558-75.604 75.604z" fill="#828a9e"/><path d="m213.366 223.728c-26.92 0-48.743-21.823-48.743-48.743s21.823-48.743 48.743-48.743 48.743 21.823 48.743 48.743v.005c-.032 26.906-21.837 48.709-48.743 48.738z" fill="#69b0ee"/><ellipse cx="213.366" cy="40.068" fill="#ef5261" rx="14.773" ry="14.773" transform="matrix(.16 -.987 .987 .16 139.637 244.261)"/><ellipse cx="192.162" cy="156.559" fill="#eeefee" rx="21.153" ry="10.746" transform="matrix(.707 -.707 .707 .707 -54.421 181.734)"/></g></svg>