<?xml version="1.0" standalone="no"?>
<svg viewBox="0 0 200 200" xmlns="http://www.w3.org/2000/svg">
  <path fill="#000000" d="M41.7,-77.9C50.8,-66.9,52.6,-49.2,55.9,-35.1C59.2,-21,63.9,-10.5,64,0.1C64.1,10.6,59.6,21.2,52.7,29C45.7,36.8,36.3,41.7,27.2,50.8C18,59.9,9,73.2,-3.2,78.8C-15.4,84.4,-30.9,82.3,-39.6,72.9C-48.2,63.5,-50.1,46.8,-55.7,33.4C-61.3,20,-70.5,10,-71.3,-0.5C-72.2,-11,-64.7,-22,-56.9,-31.6C-49.2,-41.2,-41.2,-49.4,-31.7,-60.1C-22.2,-70.9,-11.1,-84.1,2.6,-88.7C16.3,-93.2,32.6,-88.9,41.7,-77.9Z" transform="translate(100 100)" />
</svg>
