<?xml version="1.0" encoding="iso-8859-1"?>
<!-- Generator: Adobe Illustrator 19.0.0, SVG Export Plug-In . SVG Version: 6.00 Build 0)  -->
<svg version="1.1" id="Capa_1" xmlns="http://www.w3.org/2000/svg" xmlns:xlink="http://www.w3.org/1999/xlink" x="0px" y="0px"
	 viewBox="0 0 512.001 512.001" style="enable-background:new 0 0 512.001 512.001;" xml:space="preserve">
<ellipse style="fill:#DBDBDB;" cx="116.769" cy="256" rx="116.428" ry="175.038"/>
<path style="fill:#CECECE;" d="M129.642,387.616c-79.156,0-132.93-114.404-111.838-223.836
	c-49.078,118.783,9.632,267.256,98.969,267.256c53.036,0,97.785-53.315,111.839-126.238
	C208.072,354.511,171.431,387.616,129.642,387.616z"/>
<ellipse style="fill:#EAE9E8;" cx="100.752" cy="256" rx="100.412" ry="150.954"/>
<path style="fill:#DBDBDB;" d="M100.75,406.95c19.719,0,38.108-8.553,53.623-23.315C70.157,411.034-1.778,297.703,15.855,175.376
	C-25.859,274.443,21.288,406.95,100.75,406.95z"/>
<path style="fill:#656566;" d="M80.438,302.24c-34.015,19.638-76.144-3.154-79.819-41.008l0,0
	c-4.398-45.329,46.555-75.526,84.216-48.621l0,0C115.672,234.646,114.644,282.49,80.438,302.24z"/>
<path style="fill:#4F4F51;" d="M22.909,248.364L22.909,248.364c-1.618-16.668,4.723-32.775,16.055-43.661
	c-25.09,7.223-40.798,31.269-38.346,56.531l0,0c4.202,43.312,57.354,64.721,90.285,33.174
	C67.856,301.089,26.108,281.342,22.909,248.364z"/>
<ellipse style="fill:#DBDBDB;" cx="395.572" cy="256" rx="116.428" ry="175.038"/>
<path style="fill:#CECECE;" d="M408.44,387.616c-79.156,0-132.93-114.404-111.838-223.836
	c-49.078,118.783,9.632,267.256,98.969,267.256c53.036,0,97.785-53.315,111.839-126.238
	C486.87,354.511,450.23,387.616,408.44,387.616z"/>
<ellipse style="fill:#EAE9E8;" cx="379.546" cy="256" rx="100.412" ry="150.954"/>
<path style="fill:#DBDBDB;" d="M379.549,406.95c19.719,0,38.108-8.553,53.623-23.315c-84.926,27.631-156.017-86.865-138.518-208.258
	C252.332,275.889,300.912,406.95,379.549,406.95z"/>
<path style="fill:#656566;" d="M359.236,302.24c-33.948,19.6-76.136-3.076-79.819-41.008l0,0
	c-4.398-45.329,46.555-75.526,84.216-48.621l0,0C394.471,234.646,393.443,282.49,359.236,302.24z"/>
<path style="fill:#4F4F51;" d="M301.707,248.364L301.707,248.364c-1.618-16.668,4.723-32.775,16.055-43.661
	c-25.09,7.223-40.798,31.269-38.346,56.531l0,0c4.209,43.385,57.415,64.662,90.285,33.174
	C346.655,301.089,304.907,281.342,301.707,248.364z"/>
<g>
</g>
<g>
</g>
<g>
</g>
<g>
</g>
<g>
</g>
<g>
</g>
<g>
</g>
<g>
</g>
<g>
</g>
<g>
</g>
<g>
</g>
<g>
</g>
<g>
</g>
<g>
</g>
<g>
</g>
</svg>
