<svg id="Layer_1_1_" enable-background="new 0 0 256 256" height="512" viewBox="0 0 256 256" width="512" xmlns="http://www.w3.org/2000/svg"><path d="m159.723 93.321-1.869-19.408-20.413-44.653-6.633-25.26h-5.613l-6.634 25.261-20.414 44.652-1.869 19.408c-.958 9.953-.3 29.547 2.114 39.25l4.502 14.009 47.806.543 5.444-18.809c2.415-9.703 4.538-25.04 3.579-34.993zm-16.276 14.166-2.668 21.974-27.448-.2-1.364-21.679-3.359-28.31 7.144-17.096 6.379-21.433 5.599-5.103h.54l5.599 5.103 6.379 21.433 7.144 17.096z" fill="#f5d3a6"/><path d="m143.447 107.487-2.668 21.974-27.448-.2-1.364-21.679-2.327-19.612c-2.299 5.702-3.641 12.568-3.641 19.959 0 19.764 9.594 35.786 21.429 35.786s21.429-16.022 21.429-35.786c0-6.602-1.075-12.781-2.942-18.09z" fill="#f0c792"/><path d="m195.474 236.334c-.172-.589-.393-1.169-.664-1.736-2.137-4.472-7.258-6.86-11.184-9.54-6.605-4.508-13.93-7.858-21.66-9.905l-.295-.078-18.218-.619-18.042 8.365-16.065-9.525-18.72-.636-.66.251c-7.391 2.807-14.283 6.783-20.415 11.774l-5.697 4.638c-1.402 1.141-2.397 2.719-2.774 4.487-.972 4.564.86 9.385 4.818 11.837.224.139.454.271.688.396 2.314 1.231 4.965 1.675 7.554 1.266l13.812-2.183 3.043-1.305 34.674-19.295 37.899 24.506s18.149 2.707 18.15 2.708c8.376 1.247 16.236-6.929 13.756-15.406z" fill="#514654"/><path d="m151.198 191.969-48.165.429-4.021 14.771 26.398 15.652 31.426-14.57z" fill="#403742"/><path d="m149.262 186.271c-.684-2.013-1.195-4.069-1.539-6.146l-41.426.368c-.307 2.083-.781 4.148-1.429 6.173l-1.834 5.732 48.164-.428z" fill="#f5d3a6"/><path d="m163.688 228.628c-1.582-1.007-3.083-1.963-4.292-2.733-5.008-3.188-27.902-6.705-27.902-6.705l-5.697-3.934c-1.149-.793-1.99-1.957-2.384-3.296l-.622-2.115c-.631-2.147-2.388-3.775-4.576-4.241-1.093-.233-2.229-.161-3.283.208l-8.476 2.966-8.431-2.132c-1.165-.295-2.392-.238-3.525.162l-7.367 2.603c-.845.299-1.345 1.171-1.175 2.051.151.783.798 1.376 1.591 1.458l10.547 1.093 16.064 8.719 16.649 8.589 32.76 17.71z" fill="#f0c792"/><path d="m92.5 223.466c1.67-.853 3.254-1.663 4.531-2.316 5.286-2.702 28.41-4.045 28.41-4.045l6.042-3.379c1.218-.681 2.166-1.76 2.684-3.056l.819-2.047c.831-2.078 2.733-3.533 4.956-3.791 1.11-.129 2.234.05 3.249.517l8.159 3.751 8.594-1.328c1.188-.184 2.403-.012 3.494.494l7.088 3.286c.813.377 1.228 1.292.976 2.152-.224.766-.924 1.294-1.722 1.301l-10.603.094-16.814 7.166-17.385 6.982-33.983 14.573z" fill="#f5d3a6"/><path d="m164.022 223.615c-6.036-2.466-16.761-2.127-13.52-3.212 2.565-.859 10.407-3.24 15.382-4.212l-4.213-1.116-2.492.022-14.971 6.38c6.172 1.26 12.768 2.877 15.188 4.417 1.209.77 2.711 1.726 4.292 2.733.001.001 11.56 5.209 11.303 3.667-.258-1.541-4.932-6.213-10.969-8.679z" fill="#403742"/><path d="m98.095 214.012-8.645-.896c-1.077.422-2.144.869-3.2 1.337 3.006.826 6.982 1.802 9.764 2.046 5.043.443 1.805 1.934-3.055 3.766-4.86 1.831-12.954 5.642-11.962 7.513s11.503-4.312 11.503-4.312c1.67-.853 3.254-1.663 4.531-2.316 1.801-.921 5.676-1.683 9.999-2.288z" fill="#403742"/><path d="m149.015 162.042c1.712-5.397 2.222-11.103 1.496-16.719l-9.175-19.518-7.342-1.634-15.048.289-5.833 1.351-10.225 19.936c-.626 5.627-.014 11.324 1.793 16.689 1.965 5.835 2.503 12.024 1.614 18.057l41.426-.368c-.994-6.017-.567-12.214 1.294-18.083z" fill="#7f8b4b"/><path d="m128.001 4v31.64" fill="#f5d3a6"/><path d="m133.995 124.171-15.048.289-5.833 1.351-2.356 4.594c3.928 8.115 9.935 13.309 16.67 13.309 6.562 0 12.431-4.931 16.362-12.689l-2.454-5.22z" fill="#727d43"/><path d="m119.925 117.733v14.947c0 4.319 3.501 7.821 7.821 7.821 4.319 0 7.821-3.501 7.821-7.821v-14.947z" fill="#f0c792"/><path d="m127.745 78.009c-9.254 0-16.755 8.806-16.755 19.669 0 1.391.125 2.833.359 4.289 1.695-8.756 8.424-15.216 16.396-15.216 7.97 0 14.772 5.964 16.47 14.716.184-1.285.286-2.557.286-3.788 0-10.864-7.502-19.67-16.756-19.67z" fill="#704c0f"/><path d="m118.006 81.678c2.745-2.307 6.106-3.669 9.739-3.669 3.654 0 7.032 1.377 9.786 3.708h.008c.156-.705.405-1.5.405-2.251 0-5.633-4.566-10.199-10.199-10.199s-10.199 4.566-10.199 10.199c0 .813.272 1.454.452 2.212z" fill="#704c0f"/><path d="m127.745 86.751c-7.972 0-14.701 6.46-16.396 15.216 1.593 9.909 8.328 20.48 16.396 20.48 8.205 0 15.027-10.931 16.47-20.981-1.698-8.751-8.5-14.715-16.47-14.715z" fill="#f5d3a6"/><g fill="#5e400d"><path d="m121.198 79.569c-.169.084-.335.175-.501.266-1.923 3.87-2.255 7.711-2.215 10.15.107-.082.214-.164.322-.243-.015-2.496.377-6.345 2.394-10.173z"/><path d="m122.569 78.971c-.122.047-.243.095-.364.145-.769 3.557-.545 6.771-.225 8.817.102-.043.206-.084.309-.125-.316-2.059-.527-5.282.28-8.837z"/><path d="m134.447 79.651c1.947 3.101 4.212 7.545 4.489 11.762.093.091.189.178.28.271.036-.032.061-.074.058-.125-.22-4.118-2.338-8.459-4.26-11.606-.186-.107-.376-.205-.567-.302z"/><path d="m134.792 88.422c.128.064.249.141.375.208-.01-.05-.018-.097-.028-.147-.703-3.539-3.252-7.808-4.867-10.252-.143-.025-.289-.044-.433-.065 1.568 2.347 4.2 6.67 4.953 10.256z"/><path d="m137.531 81.717h.008c.095-.429.219-.892.306-1.358-2.808-2.495-6.306-3.976-10.099-3.976-3.789 0-7.284 1.478-10.09 3.968.096.441.234.863.343 1.326h.008c2.745-2.307 6.106-3.669 9.739-3.669 3.653.001 7.032 1.379 9.785 3.709z"/></g><path d="m125.449 110.125-.999 5.587c-.094 1.065.304 2.114 1.08 2.849 1.35 1.279 3.465 1.279 4.815 0l.063-.059c.74-.701 1.138-1.69 1.089-2.708l-.562-5.668h-5.486z" fill="#ef9a9a"/></svg>