<?xml version="1.0" encoding="utf-8"?>
<svg id="Layer_1_1_" enable-background="new 0 0 256 256" height="512" viewBox="0 0 256 256" width="512" xmlns="http://www.w3.org/2000/svg">
  <path d="M 145.511 95.839 L 154.996 88.725 C 154.653 86.429 152.805 84.577 150.481 83.692 C 147.054 82.387 143.218 84.107 141.913 87.534 C 140.667 90.808 142.386 94.382 145.511 95.839 Z" fill="#704c0f" transform="matrix(-1, 0, 0, -1, 296.500473, 179.094505)"/>
  <path d="M 149.429 86.277 C 149.437 86.28 149.444 86.283 149.452 86.286 C 150.382 86.643 150.462 87.93 149.617 88.458 C 147.364 89.864 145.464 91.79 144.438 93.947 C 144.286 94.267 144.153 94.596 144.029 94.928 C 144.46 95.271 144.931 95.573 145.445 95.813 L 154.93 88.699 C 154.893 88.453 154.833 88.215 154.761 87.981 C 154.733 87.886 154.7 87.793 154.666 87.7 C 154.621 87.578 154.571 87.458 154.517 87.339 C 154.392 87.055 154.246 86.781 154.076 86.519 C 154.075 86.517 154.074 86.516 154.073 86.514 C 153.249 85.249 151.94 84.247 150.417 83.666 C 148.143 82.799 145.547 83.346 143.703 84.935 C 142.304 86.14 141.694 87.503 141.503 88.861 C 143.17 86.295 146.453 85.144 149.429 86.277 Z" fill="#5e400d" transform="matrix(-1, 0, 0, -1, 296.432999, 179.068878)"/>
  <path d="M 120.103 88.476 C 123.332 88.723 126.828 87.762 126.828 87.762 L 131.525 89.565 L 133.155 86.455 C 133.155 86.455 137.055 85.903 138.686 84.752 C 140.547 83.439 141.805 80.06 142.383 77.99 C 142.853 76.309 142.68 74.669 142.153 73.1 C 141.472 71.069 140.197 69.155 138.956 67.42 C 137.634 65.571 135.191 64.555 133.146 63.763 C 132.48 63.505 131.789 63.265 131.085 63.046 C 127.18 66.3 120.103 88.475 120.103 88.476 Z" fill="#f0c792" transform="matrix(-1, 0, 0, -1, 262.759857, 152.611004)"/>
  <path d="M 133.215 85.157 C 134.398 87.691 137.358 90.036 140.109 90.605 C 140.548 90.696 141.004 90.756 141.465 90.791 C 141.465 90.791 148.542 68.615 152.449 65.36 C 150.542 64.766 148.532 64.333 146.604 64.171 C 141.468 63.74 135.188 67.334 132.973 71.992 C 131.056 76.025 131.366 81.197 133.215 85.157 Z" fill="#704c0f" transform="matrix(-1, 0, 0, -1, 284.123199, 154.926918)"/>
  <g fill="#5e400d" transform="matrix(-1, 0, 0, 1, 257.529999, 0)">
    <path d="m108.99 74.793c1.709-2.996 4.816-4.864 7.448-5.981.084.243.169.49.259.746-2.513 1.078-5.456 2.852-7.035 5.619-1.478 2.59-2.257 5.981-2.667 8.848-.226-.357-.437-.718-.614-1.09-.003-.007-.006-.014-.009-.02.453-2.697 1.241-5.711 2.618-8.122z"/>
    <path d="m116.281 83.356c1.588-1.17 2.891-2.793 3.918-4.402.12.296.24.589.361.881-1.021 1.516-2.288 3.016-3.819 4.144-1.932 1.423-4.142 2.765-6.064 3.848-.229-.165-.453-.334-.672-.509 1.963-1.096 4.274-2.487 6.276-3.962z"/>
    <path d="m111.915 88.639c2.117-.292 4.56-.767 6.513-1.536 1.571-.619 2.95-1.718 4.073-2.866.122.254.243.5.363.742-1.149 1.136-2.546 2.211-4.153 2.844-1.718.677-3.767 1.13-5.661 1.434-.386-.189-.763-.399-1.135-.618z"/>
  </g>
  <path d="M 109.6 121.292 C 113.485 123.318 118.142 123.136 121.877 120.844 C 125.602 118.558 129.661 115.489 130.217 112.712 C 131.003 108.782 129.449 104.851 128.603 103.097 C 128.276 102.419 128.149 101.664 128.217 100.914 L 129.161 90.53 L 108.035 88.417 L 102.981 106.781 C 101.428 112.423 104.024 118.384 109.213 121.09 Z" fill="#7f8b4b" transform="matrix(-1, 0, 0, -1, 232.966774, 211.112862)"/>
  <path d="M 114.943 246.135 C 113.743 242.428 113.107 238.561 113.057 234.665 L 112.78 212.903 L 112.281 209.909 C 111.937 207.846 112.742 205.759 114.382 204.461 C 115.397 203.658 116.653 203.22 117.948 203.22 L 135.19 203.22 C 136.7 203.22 137.907 204.475 137.849 205.984 C 137.807 207.078 137.099 208.035 136.065 208.395 L 122.111 213.255 C 122.111 213.255 122.111 218.184 122.111 228.043 C 122.111 236.485 126.11 248.018 127.26 251.16 L 116.986 252.444 Z" fill="#f5d3a6" transform="matrix(-1, 0, 0, -1, 250.053665, 455.664001)"/>
  <path d="M 127.482 133.963 L 106.356 131.85 C 105.897 128.011 105.037 124.237 103.806 120.583 L 124.094 120.583 C 124.167 120.83 124.24 121.067 124.313 121.287 C 125.369 124.457 127.482 133.963 127.482 133.963 Z" fill="#f5d3a6" transform="matrix(-1, 0, 0, -1, 231.288002, 254.545998)"/>
  <path d="M 110.564 198.602 L 109.106 195.582 C 106.759 190.722 106.564 185.099 108.569 180.088 C 109.514 177.726 109.98 175.201 109.941 172.658 L 109.56 147.657 C 109.501 143.793 108.866 139.96 107.676 136.283 L 107.34 135.245 L 117.614 133.961 C 117.807 134.488 117.922 134.787 117.922 134.787 L 120.915 143.413 C 120.915 143.413 125.316 155.736 128.133 167.356 C 130.95 178.975 131.32 195.7 131.32 195.7 C 131.32 195.7 132.235 201.187 133.213 204.503 L 112.925 204.503 C 112.249 202.496 111.465 200.525 110.564 198.602 Z" fill="#514654" transform="matrix(-1, 0, 0, -1, 240.40696, 338.464005)"/>
  <path d="M 121.643 88.433 C 126.498 88.433 130.433 92.369 130.433 97.224 L 130.433 111.976 C 127.519 112.71 124.399 112.403 121.658 110.973 L 121.271 110.771 C 116.082 108.065 113.486 102.104 115.039 96.462 L 116.856 89.858 C 118.227 88.965 119.863 88.433 121.643 88.433 Z" fill="#727d43" transform="matrix(-1, 0, 0, -1, 245.025246, 200.793633)"/>
  <path d="M 132.154 82.026 L 132.154 12.17 C 132.154 7.872 128.67 4.388 124.372 4.388 C 119.586 4.388 115.934 8.667 116.686 13.393 L 122.647 48.752 L 122.113 54.628 C 121.766 58.441 121.923 62.282 122.579 66.054 L 124.876 82.026 L 122.084 91.004 C 121.512 92.843 121.221 94.757 121.221 96.683 C 121.221 97.996 122.285 99.06 123.598 99.06 L 124.522 99.06 L 126.605 103.889 C 127.104 105.045 128.242 105.794 129.501 105.794 C 131.158 105.794 132.533 104.512 132.648 102.858 L 133.104 96.287 Z" fill="#f5d3a6" transform="matrix(-1, 0, 0, -1, 249.691559, 110.181998)"/>
</svg>