<svg id="Layer_1_1_" enable-background="new 0 0 256 256" height="512" viewBox="0 0 256 256" width="512" xmlns="http://www.w3.org/2000/svg"><path d="m119.771 116.16 38.091.443c-.032-.102-2.377-6.362-2.784-13.509h-33.045c-.156 4.424-.9 8.822-2.262 13.066z" fill="#f5d3a6"/><path d="m156.066 93.464.492-2.958 1.461-8.783 1.616-9.711-.162-15.375-13.972-2.627-13.584-.015-14.06 2.642v15.375l1.629 9.789 1.143 8.701.797 2.961c.531 3.192.719 6.418.606 9.63h33.045c-.182-3.189.021-6.554.989-9.629z" fill="#7f8b4b"/><path d="m157.862 116.603-38.091-.443s-2.821 5.536-5.333 7.326l-8.438 6.014-3.831 1.884c-7.542 3.709-14.298 8.838-19.897 15.106l-6.527 7.306c-1.124 1.258-1.745 2.886-1.745 4.573 0 2.672 1.55 5.1 3.973 6.225l1.44.669c1.041.483 2.187.698 3.332.624 2.564-.166 5.111-.508 7.624-1.023l46.661-19.023 2.032 25.461 1.187 14.198-.654 3.269c3.642 2.886 8.217 4.333 12.856 4.065l.752-.012 2.046-10.573 4.699-49.887c.2-5.334-.506-10.662-2.086-15.759z" fill="#514654"/><path d="m139.596 188.769-.852 4.261c-.828 4.141-1.344 8.338-1.543 12.556l-.951 20.164-3.5 7.25-1.114 17.372c-.074 1.153.841 2.128 1.996 2.128h5.539c.53 0 1.039-.211 1.414-.586l3.602-3.602c.629-.629.767-1.598.338-2.378l-2.026-3.684-.75-8.75 7.173-22.317c1.217-3.785 2.205-7.64 2.961-11.543l1.319-6.817-.752.012c-4.637.267-9.212-1.18-12.854-4.066z" fill="#f5d3a6"/><path d="m138.745 10.795c-7.646 0-13.844 7.276-13.844 16.252 0 1.15.103 2.341.297 3.544 1.401-7.235 6.961-12.572 13.548-12.572 6.585 0 12.205 4.928 13.608 12.159.152-1.062.236-2.112.236-3.13 0-8.977-6.199-16.253-13.845-16.253z" fill="#704c0f"/><path d="m132.283 43.617v12.35c0 3.569 2.893 6.462 6.462 6.462s6.462-2.893 6.462-6.462v-12.35z" fill="#f0c792"/><path d="m130.698 13.826c2.268-1.906 5.045-3.031 8.047-3.031 3.019 0 5.811 1.138 8.086 3.064h.006c.129-.582.335-1.239.335-1.86 0-4.654-3.773-8.427-8.427-8.427s-8.427 3.773-8.427 8.427c0 .672.225 1.201.373 1.828h.007z" fill="#704c0f"/><path d="m138.745 18.018c-6.587 0-12.147 5.338-13.548 12.572 1.317 8.187 6.881 16.922 13.548 16.922 6.779 0 12.416-9.032 13.608-17.336-1.402-7.23-7.023-12.158-13.608-12.158z" fill="#f5d3a6"/><g fill="#5e400d"><path d="m133.335 12.083c-.14.07-.277.145-.414.22-1.589 3.197-1.863 6.372-1.83 8.387.088-.068.177-.135.266-.201-.012-2.062.312-5.243 1.978-8.406z"/><path d="m134.468 11.589c-.101.038-.201.078-.301.12-.635 2.939-.451 5.594-.186 7.285.085-.036.17-.069.256-.103-.261-1.702-.435-4.364.231-7.302z"/><path d="m144.283 12.151c1.609 2.562 3.48 6.234 3.709 9.718.077.075.156.147.231.224.03-.026.05-.061.048-.104-.182-3.403-1.932-6.989-3.52-9.59-.153-.086-.311-.168-.468-.248z"/><path d="m144.568 19.399c.106.053.206.116.31.172-.008-.041-.015-.08-.023-.121-.581-2.924-2.687-6.451-4.021-8.471-.118-.021-.239-.036-.358-.053 1.295 1.938 3.47 5.51 4.092 8.473z"/><path d="m146.831 13.859h.006c.078-.355.181-.737.253-1.122-2.321-2.061-5.21-3.285-8.345-3.285-3.131 0-6.018 1.221-8.337 3.279.079.365.193.713.284 1.096h.007c2.268-1.906 5.045-3.031 8.047-3.031 3.019-.001 5.81 1.137 8.085 3.063z"/></g><path d="m182.394 88.745c-1.492-4.894-3.598-11.578-6.269-15.942l-4.528-7.399c-1.724-2.818-4.06-5.241-6.912-6.908-1.625-.949-3.325-1.723-5.213-1.859l-.255 17.886 7.948 5.985-1.631.538c-1.662.548-3.407.802-5.156.749l-13.856-.42-5.625-22.5h-4.626l-5.625 22.5-13.856.42c-1.749.053-3.494-.2-5.156-.749l-1.329-.438 7.936-6.287-.384-17.683c-1.887.136-3.75.91-5.375 1.859-2.852 1.667-5.188 4.09-6.912 6.908l-4.528 7.399c-2.67 4.364-4.777 11.049-6.269 15.942-.443 1.452.614 2.929 2.131 2.979l23.724-1.221 13.392-3.253 4.563-4.25 4.563 4.25 13.392 3.253 23.724 1.221c1.518-.051 2.575-1.528 2.132-2.98z" fill="#f5d3a6"/><path d="m159.245 72.579-.028 1.944 7.949 5.985 3.147-.678z" fill="#f0c792"/><path d="m110.305 80.608 7.937-6.287-.049-2.234-11.684 7.743z" fill="#f0c792"/><path d="m130.054 140.821c-4.339 2.732-18.321 2.893-30.214 5.304s-11.089 5.303-11.089 5.303l8.47-2.243 9.059 9.193 30.752-12.537 2.032 25.461.932 11.144 2.423-6.107 1.461-21.598c.519-7.682-1.455-15.326-5.628-21.796-.002.001-3.859 5.144-8.198 7.876z" fill="#403742"/><path d="m139.698 141.557c-1.84-1.4-4.336-1.573-6.351-.439l-3.347 1.882-14.756 1.302c-6.256.552-12.357 2.207-18.024 4.883s-7.243 10.196-7.231 15.755l.381-.076c1.4-.287 2.789-.628 4.164-1.022l35.216-10.092 5.5 12.25v3.553c0 1.328 1.117 2.382 2.442 2.304 1.141-.066 2.061-.957 2.165-2.095l2.102-23.069c.181-1.986-.673-3.927-2.261-5.136z" fill="#f5d3a6"/></svg>