<?xml version="1.0" encoding="iso-8859-1"?>
<!-- Generator: Adobe Illustrator 19.0.0, SVG Export Plug-In . SVG Version: 6.00 Build 0)  -->
<svg version="1.1" id="Capa_1" xmlns="http://www.w3.org/2000/svg" xmlns:xlink="http://www.w3.org/1999/xlink" x="0px" y="0px"
	 viewBox="0 0 511.245 511.245" style="enable-background:new 0 0 511.245 511.245;" xml:space="preserve">
<path style="fill:#F26F5A;" d="M130.719,510.75l-7.467-8.533c0,0,7.467-7.467,14.933-10.667c7.467-3.2,22.4-16,22.4-16
	l27.733,14.933c0,0,0,8.533-4.267,8.533C177.652,499.017,130.719,510.75,130.719,510.75"/>
<path style="fill:#CED6E0;" d="M122.186,502.217c0,0,3.2,4.267,21.333,2.133c5.333-1.067,10.667-2.133,16-4.267
	c3.2-1.067,6.4-2.133,8.533-2.133c4.267,0,18.133-2.133,18.133-7.467c0,0,3.2,9.6-5.333,9.6c-9.6,0-18.133,2.133-22.4,5.333
	c-4.267,2.133-17.067,7.467-30.933,5.333C128.586,510.75,121.119,510.75,122.186,502.217z"/>
<path style="fill:#F26F5A;" d="M424.052,474.484c0,0,18.133,13.867,23.467,19.2c5.333,5.333,3.2,5.333,3.2,5.333l-6.4,7.467
	c0,0-21.333-4.267-24.533-7.467c-3.2-3.2-9.6-6.4-10.667-6.4l-5.333-2.133C403.786,490.484,409.119,469.15,424.052,474.484z"/>
<path style="fill:#CED6E0;" d="M404.852,487.284c0,0,0,2.133,6.4,4.267c3.2,1.067,5.333,2.133,6.4,3.2
	c4.267,4.267,9.6,6.4,14.933,7.467c1.067,0,2.133,0,2.133,0c12.8,0,16-3.2,16-3.2s1.067,6.4-4.267,8.533
	c-5.333,2.133-18.133,1.067-22.4-1.067c-4.267-2.133-5.333-4.267-5.333-5.333s-4.267-6.4-8.533-6.4
	C405.919,494.75,401.652,492.617,404.852,487.284z"/>
<path style="fill:#425A6B;" d="M330.186,215.284l12.8,1.067c0,0,28.8,28.8,34.133,73.6c5.333,44.8,9.6,61.867,14.933,70.4
	c4.267,8.533-1.067,10.667,3.2,16c4.267,5.333,8.533,8.533,8.533,12.8s6.4,37.333,14.933,53.333
	c8.533,14.933,10.667,37.333,10.667,37.333s-6.4-2.133-12.8,2.133c-5.333,4.267-9.6,9.6-11.733,9.6
	c-2.133,0-8.533-1.067-10.667-4.267c-1.067-3.2-8.533-23.467-12.8-29.867s-21.333-62.933-24.533-70.4
	c-3.2-7.467-7.467-23.467-7.467-23.467s-19.2-59.733-23.467-67.2c-4.267-7.467-8.533-8.533-12.8-5.333
	c-4.267,4.267-29.867,39.467-36.267,54.4c-7.467,14.933-34.133,64-34.133,64s-34.133,56.533-46.933,69.333
	c0,0-8.533,17.067-16,17.067c0,0-12.8-7.467-19.2-11.733c-7.467-4.267-6.4-11.733,1.067-16c7.467-4.267,29.867-49.067,34.133-59.733
	c4.267-11.733,16-29.867,23.467-32c0,0,16-34.133,21.333-55.467c5.333-21.333,20.267-52.267,20.267-52.267l70.4-56.533"/>
<path style="fill:#344A5E;" d="M165.919,215.284c-1.067,9.6,3.2,18.133,6.4,26.667s5.333,19.2,1.067,26.667
	c-2.133,4.267-6.4,8.533-7.467,12.8c-1.067,3.2-1.067,6.4,0,9.6c0,3.2,0,6.4-1.067,9.6c-1.067,3.2-4.267,6.4-7.467,6.4
	c3.2-7.467,2.133-16-2.133-22.4c2.133,6.4,0,13.867-5.333,18.133c1.067-5.333-1.067-10.667-3.2-16
	c-2.133-5.333-5.333-9.6-4.267-14.933c0-3.2,1.067-7.467,2.133-10.667c0-10.667-11.733-20.267-10.667-30.933
	c1.067-6.4,6.4-11.733,12.8-14.933c5.333-2.133,12.8-2.133,19.2-2.133"/>
<path style="fill:#F5B54C;" d="M64.586,24.35c0,0,3.2-2.133,4.267,0L60.319,9.417c-1.067-3.2,2.133-5.333,3.2-2.133l-2.133-4.267
	c-1.067-2.133,2.133-4.267,3.2-2.133l2.133,2.133c-1.067-2.133,1.067-4.267,2.133-2.133l3.2,5.333c-2.133-2.133,0-4.267,2.133-2.133
	c0,0,10.667,8.533,12.8,11.733c2.133,3.2,10.667,7.467,13.867,18.133c0,0,19.2,21.333,24.533,25.6s27.733,25.6,27.733,25.6
	s2.133,2.133,3.2,5.333c1.067,3.2,19.2,32,19.2,32s10.667,19.2,12.8,23.467c2.133,5.333,7.467,9.6,17.067,11.733
	c10.667,2.133,20.267,4.267,20.267,4.267l2.133,73.6l-10.667,16h-4.267c0,0-6.4,7.467-8.533,9.6c0,0-1.067,14.933,0,19.2
	s1.067,25.6,0,29.867s0,19.2,0,19.2s0,19.2-4.267,33.067c-4.267,13.867-9.6,36.267-9.6,36.267s-1.067,6.4,1.067,11.733
	c3.2,5.333,3.2,9.6,1.067,13.867c0,0,1.067,11.733-3.2,14.933c0,0-2.133,1.067-2.133,0c0,0-2.133,13.867-7.467,13.867
	c0,0-2.133,0-2.133-2.133c0-1.067,5.333-14.933,3.2-23.467c0,0,1.067-17.067-1.067-21.333c0-1.067,1.067-36.267,1.067-36.267
	s-3.2-26.667,1.067-37.333s-1.067-39.467-1.067-39.467s-7.467-17.067-5.333-36.267c1.067-19.2,0-30.933,0-30.933l-8.533-2.133
	l-13.867-36.267l26.667-1.067c0,0-14.933-13.867-19.2-29.867c-4.267-16-3.2-17.067-3.2-17.067s-2.133-7.467-11.733-24.533
	c0,0-4.267-10.667-9.6-12.8c-5.333-2.133-14.933-16-21.333-26.667c-6.4-11.733-24.533-34.133-24.533-34.133l-7.467-1.067
	c-3.2-1.067-6.4-2.133-8.533-4.267l-6.4-5.333L64.586,24.35z"/>
<path style="fill:#FFD15C;" d="M142.452,182.217c0,0,29.867,16,30.933,28.8c1.067,12.8-1.067,19.2-7.467,21.333
	c-6.4,2.133-21.333,4.267-48-9.6C117.919,222.75,123.252,175.817,142.452,182.217z"/>
<path id="SVGCleanerId_0" style="fill:#344A5E;" d="M165.919,189.684c0,0-18.133-5.333-24.533,0
	c-6.4,5.333-7.467,11.733-7.467,11.733s-6.4,6.4-6.4,9.6c0,0-3.2,2.133-7.467,0c0,0,5.333,2.133,8.533,2.133
	c0,0-2.133,5.333-8.533,6.4c0,0,0,7.467,8.533,10.667c0,0-7.467,3.2-14.933-3.2c-7.467-7.467-6.4-26.667-6.4-26.667
	s0-2.133,1.067-5.333c5.333-13.867,20.267-20.267,34.133-16C148.852,180.084,158.452,183.284,165.919,189.684z"/>
<ellipse transform="matrix(-0.6651 -0.7467 0.7467 -0.6651 117.7502 424.2501)" style="fill:#FFD15C;" cx="154.003" cy="185.722" rx="8.533" ry="4.266"/>
<path style="fill:#E8EAE8;" d="M168.052,189.684c0,0,4.267-5.333,4.267-9.6c0,0,20.267,4.267,28.8-1.067
	c8.533-4.267,19.2-14.933,21.333-19.2c0,0,32-1.067,55.467,11.733c23.467,12.8,30.933,21.333,46.933,29.867
	c17.067,7.467,19.2,13.867,19.2,13.867s-6.4,19.2-35.2,37.333c-28.8,18.133-44.8,18.133-49.067,17.067c0,0-5.333-8.533-4.267-13.867
	c1.067-5.333-2.133-10.667-2.133-10.667s-7.467,16-21.333,13.867c-13.867-2.133-16-5.333-16-5.333s-6.4,3.2-11.733,1.067
	c0,0-20.267-16-22.4-18.133c-2.133-1.067-7.467-8.533-7.467-10.667c0-2.133,0-2.133,0-2.133l1.067-2.133c0,0,6.4,7.467,9.6,8.533
	c3.2,1.067,23.467,17.067,25.6,20.267c0,0,4.267,3.2,6.4-5.333c3.2-8.533,3.2-21.333,2.133-28.8
	c-2.133-7.467-7.467-20.267-20.267-24.533C198.986,190.75,170.186,188.617,168.052,189.684z"/>
<g>
	<path id="SVGCleanerId_0_1_" style="fill:#344A5E;" d="M165.919,189.684c0,0-18.133-5.333-24.533,0
		c-6.4,5.333-7.467,11.733-7.467,11.733s-6.4,6.4-6.4,9.6c0,0-3.2,2.133-7.467,0c0,0,5.333,2.133,8.533,2.133
		c0,0-2.133,5.333-8.533,6.4c0,0,0,7.467,8.533,10.667c0,0-7.467,3.2-14.933-3.2c-7.467-7.467-6.4-26.667-6.4-26.667
		s0-2.133,1.067-5.333c5.333-13.867,20.267-20.267,34.133-16C148.852,180.084,158.452,183.284,165.919,189.684z"/>
</g>
<g>
</g>
<g>
</g>
<g>
</g>
<g>
</g>
<g>
</g>
<g>
</g>
<g>
</g>
<g>
</g>
<g>
</g>
<g>
</g>
<g>
</g>
<g>
</g>
<g>
</g>
<g>
</g>
<g>
</g>
</svg>
