<?xml version="1.0" encoding="iso-8859-1"?>
<!-- Generator: Adobe Illustrator 19.0.0, SVG Export Plug-In . SVG Version: 6.00 Build 0)  -->
<svg version="1.1" id="Capa_1" xmlns="http://www.w3.org/2000/svg" xmlns:xlink="http://www.w3.org/1999/xlink" x="0px" y="0px"
	 viewBox="0 0 511.943 511.943" style="enable-background:new 0 0 511.943 511.943;" xml:space="preserve">
<g>
	<path style="fill:#CED6E0;" d="M141.673,174.933l5.333,8.533l-7.467,6.4C139.54,190.933,139.54,177.067,141.673,174.933z"/>
	<path style="fill:#CED6E0;" d="M187.54,174.933l-6.4,8.533l3.2,7.467C183.273,190.933,190.74,178.133,187.54,174.933z"/>
</g>
<path style="fill:#F5B54C;" d="M125.673,321.067l2.133,11.733c0,0,0,24.533,41.6,26.667c41.6,2.133,44.8-26.667,41.6-36.267
	l-1.067-7.467l-71.467-13.867L125.673,321.067z"/>
<g>
	<path style="fill:#344A5E;" d="M205.673,417.067c0,0,76.8-38.4,51.2-60.8l-4.267-3.2
		C252.607,353.067,200.34,397.867,205.673,417.067z"/>
	<path style="fill:#344A5E;" d="M106.473,349.867c0,0,18.133-4.267,38.4,28.8c0,0,7.467,9.6,6.4,16c-1.067,6.4,6.4,7.467,6.4,7.467
		s-2.133,9.6-6.4,11.733c-4.267,2.133-9.6-5.333-9.6-5.333s-3.2-2.133-6.4,0c-3.2,2.133-6.4,0-6.4,0L106.473,349.867z"/>
</g>
<path style="fill:#FFD15C;" d="M248.34,356.267c0,0,28.8,9.6,53.333,32c0,0,7.467,8.533,11.733,9.6
	c4.267,1.067,10.667,5.333,10.667,5.333s6.4,4.267,11.733,4.267c5.333,0,29.867,10.667,42.667,21.333
	c11.733,10.667,37.333,28.8,37.333,28.8l-8.533,17.067c0,0-10.667-7.467-21.333-10.667c-10.667-3.2-37.333-11.733-45.867-20.267
	c0,0-9.6-6.4-21.333-8.533c-11.733-1.067-32-5.333-43.733-14.933l-83.2-29.867L248.34,356.267z"/>
<polygon style="fill:#F5B54C;" points="186.473,194.133 183.273,217.6 159.807,217.6 145.94,208 143.807,170.667 143.807,170.667 
	183.273,164.267 "/>
<path style="fill:#FFD15C;" d="M164.073,21.333c3.2-3.2,7.467-10.667,11.733-8.533c2.133,2.133-3.2,8.533-3.2,8.533
	s-4.267,5.333-6.4,6.4C164.073,29.867,161.94,32,161.94,32v3.2c0,1.067,2.133,4.267,0,5.333s-4.267,1.067-4.267,1.067
	s-3.2,1.067-4.267,3.2c-1.067,1.067-2.133,1.067-5.333,0c-3.2-1.067-6.4-1.067-6.4-1.067s-2.133,0-4.267,6.4
	S129.94,67.2,129.94,67.2s1.067,28.8-9.6,49.067c0,0-1.067,2.133,1.067,6.4c1.067,3.2,21.333,16,4.267,55.467L105.407,195.2
	c0,0-12.8-22.4-13.867-33.067c-1.067-11.733,1.067-25.6,1.067-25.6s0-17.067,0-20.267c-1.067-3.2,0-8.533,2.133-11.733
	c0,0,9.6-30.933,16-43.733c7.467-12.8,9.6-19.2,9.6-19.2s4.267-6.4,4.267-8.533s8.533-14.933,18.133-19.2
	c0,0,2.133-1.067,2.133-2.133c1.067-1.067,7.467-10.667,10.667-10.667c3.2,0,3.2,1.067,3.2,2.133s-2.133,4.267-3.2,4.267
	c0,1.067-2.133,2.133-2.133,2.133l-4.267,5.333h2.133c0,0,2.133-5.333,4.267-5.333l3.2-4.267c1.067,0,3.2-6.4,8.533-4.267
	c4.267,1.067-2.133,6.4-2.133,6.4l-5.333,6.4l-4.267,4.267V19.2l2.133-1.067c0,0,3.2-4.267,4.267-4.267c0,0,2.133-3.2,3.2-4.267
	c0,0,3.2-7.467,6.4-6.4c5.333,2.133,0,7.467,0,7.467L164.073,21.333L164.073,21.333z"/>
<path style="fill:#F5B54C;" d="M157.673,27.733L157.673,27.733L157.673,27.733c-1.067,1.067-2.133,2.133-2.133,5.333
	c0,0-3.2,0-3.2,1.067l-2.133,1.067c0,0,1.067,0,2.133,1.067c0,0,1.067-2.133,2.133-1.067s1.067,1.067,1.067,1.067s0,0,1.067,0
	c0,0-1.067-2.133,0-2.133c0,0-1.067-3.2,0-5.333l0,0c0,0,2.133-2.133,3.2-1.067l1.067,1.067V32l0,0l0,0v-3.2
	C161.94,28.8,159.807,26.667,157.673,27.733z"/>
<path style="fill:#FFD15C;" d="M165.14,21.333c-3.2-3.2-7.467-10.667-11.733-8.533c-2.133,2.133,3.2,8.533,3.2,8.533
	s4.267,5.333,6.4,6.4C165.14,29.867,168.34,32,168.34,32v3.2c0,1.067-2.133,4.267,0,5.333s4.267,1.067,4.267,1.067
	s3.2,2.133,4.267,3.2c1.067,1.067,2.133,1.067,5.333,0s6.4-1.067,6.4-1.067s2.133,0,4.267,6.4S200.34,67.2,200.34,67.2
	s-1.067,28.8,9.6,49.067c0,0,1.067,2.133-1.067,6.4c-1.067,3.2-21.333,16-4.267,55.467l18.133,16c0,0,16-11.733,14.933-32
	c0-11.733-1.067-25.6-1.067-25.6s0-17.067,0-20.267c1.067-3.2,0-8.533-2.133-11.733c0,0-9.6-30.933-16-43.733
	c-7.467-12.8-9.6-19.2-9.6-19.2s-3.2-6.4-3.2-9.6c0-2.133-8.533-14.933-18.133-19.2c0,0-2.133-1.067-2.133-2.133
	C184.34,9.6,177.94,0,174.74,0c-3.2,0-3.2,1.067-3.2,2.133s2.133,4.267,3.2,4.267c0,1.067,2.133,2.133,2.133,2.133l4.267,6.4h-2.133
	c0,0-2.133-5.333-4.267-5.333l-3.2-4.267c-1.067,0-3.2-6.4-8.533-4.267c-4.267,1.067,2.133,6.4,2.133,6.4l5.333,6.4l4.267,4.267
	V19.2l-2.133-1.067c0,0-3.2-4.267-4.267-4.267c0,0-2.133-3.2-3.2-4.267c0,0-3.2-7.467-6.4-6.4s-1.067,7.467-1.067,7.467
	L165.14,21.333L165.14,21.333z"/>
<path style="fill:#F5B54C;" d="M172.607,27.733L172.607,27.733L172.607,27.733c1.067,1.067,2.133,2.133,2.133,5.333
	c0,0,3.2,0,3.2,1.067l2.133,1.067c0,0-1.067,0-2.133,1.067c0,0-1.067-2.133-2.133-1.067c-1.067,1.067-1.067,1.067-1.067,1.067
	s0,0-1.067,0c0,0,1.067-2.133,0-2.133c0,0,1.067-3.2,0-5.333l0,0c0,0-2.133-2.133-3.2-1.067l-1.067,1.067V32l0,0l0,0v-3.2
	C167.273,28.8,169.407,26.667,172.607,27.733z"/>
<path style="fill:#FFD15C;" d="M101.14,179.2h-5.333c0,0-4.267,9.6,7.467,10.667C115.007,192,101.14,178.133,101.14,179.2"/>
<path style="fill:#67C5B8;" d="M229.14,187.733c0,0-6.4,5.333-6.4,11.733c-1.067,5.333-1.067,10.667,0,16
	c1.067,5.333-2.133,12.8-2.133,12.8s0,11.733-3.2,21.333s-4.267,16-4.267,16s-3.2,11.733-3.2,21.333c0,9.6-2.133,28.8-2.133,28.8
	s-5.333,8.533-8.533,8.533c-3.2,1.067-7.467,6.4-7.467,6.4s-5.333,3.2-11.733,4.267c-6.4,1.067-12.8,2.133-12.8,2.133
	s-8.533,5.333-20.267,1.067c-11.733-4.267-25.6-9.6-33.067-7.467l-2.133-24.533c0,0-3.2-33.067-4.267-40.533
	c-2.133-7.467-3.2-21.333-3.2-21.333s-2.133-23.467-1.067-38.4c0,0-2.133-8.533-2.133-10.667l-5.333-7.467c0,0-2.133-3.2,0-8.533
	c0,0-1.067,6.4,3.2,7.467c3.2,1.067,30.933-16,32-32c0,0,1.067,4.267,0,8.533l6.4,7.467l12.8,26.667l14.933,14.933l12.8-12.8
	l10.667-21.333l-1.067-3.2l4.267-5.333c2.133-2.133,3.2-4.267,4.267-7.467l3.2-6.4c0,0,0,4.267,4.267,11.733
	C206.74,174.933,218.473,194.133,229.14,187.733z"/>
<path style="fill:#FFFFFF;" d="M191.807,171.733V176c0,7.467-6.4,17.067-11.733,24.533c-5.333,7.467-11.733,12.8-12.8,13.867
	c-2.133,2.133-4.267,2.133-6.4,0c-2.133-2.133-23.467-23.467-24.533-38.4v-4.267c1.067,1.067,3.2,3.2,5.333,4.267
	c1.067,13.867,22.4,35.2,22.4,35.2s22.4-21.333,22.4-35.2l4.267-5.333c0,0,0,0,0-1.067L191.807,171.733z"/>
<g>
	<path style="fill:#FFD15C;" d="M189.673,145.067l-2.133,13.867c0,0-1.067,33.067-23.467,33.067l0,0
		c-22.4,0-23.467-33.067-23.467-33.067l-2.133-13.867c-1.067-21.333,24.533-11.733,25.6-11.733l0,0
		C165.14,133.333,190.74,122.667,189.673,145.067z"/>
	<path style="fill:#FFD15C;" d="M195.007,162.133c-2.133,5.333-5.333,9.6-7.467,8.533s-3.2-6.4-2.133-11.733
		c2.133-8.533,5.333-9.6,7.467-8.533C196.073,151.467,198.207,153.6,195.007,162.133z"/>
	<path style="fill:#FFD15C;" d="M134.207,162.133c2.133,5.333,5.333,9.6,7.467,8.533s3.2-6.4,2.133-11.733
		c-2.133-8.533-5.333-9.6-7.467-8.533C133.14,151.467,131.007,153.6,134.207,162.133z"/>
</g>
<path style="fill:#425A6B;" d="M142.74,162.133c0,0-1.067-10.667,1.067-12.8c2.133-1.067,4.267-6.4,4.267-7.467
	c0-2.133,3.2-5.333,9.6-3.2c6.4,3.2,17.067-1.067,17.067-1.067s8.533-3.2,9.6,1.067c1.067,4.267,1.067,7.467,3.2,8.533l1.067,11.733
	h1.067c0,0,5.333-12.8,3.2-20.267c-2.133-8.533-7.467-19.2-21.333-23.467c-13.867-4.267-26.667,8.533-26.667,8.533
	s-8.533,7.467-6.4,20.267S142.74,162.133,142.74,162.133L142.74,162.133L142.74,162.133z"/>
<path style="fill:#FFD15C;" d="M103.273,464l-4.267-20.267c0,0,3.2-23.467-9.6-37.333c0,0,6.4-1.067,12.8,0
	c6.4,1.067,34.133,6.4,52.267-6.4c0,0,0-29.867-30.933-49.067h-13.867c0,0-37.333,8.533-44.8,18.133
	c0,0-18.133,17.067-10.667,42.667c6.4,24.533,16,34.133,16,34.133s12.8,19.2,13.867,24.533L103.273,464z"/>
<path style="fill:#E8EAE8;" d="M80.873,464c0,0,3.2,2.133,11.733,0c8.533-2.133,10.667-3.2,9.6-7.467l4.267,13.867
	c0,0,3.2,4.267,3.2,8.533c0,4.267-4.267,5.333-4.267,5.333H94.74l-13.867-6.4l-1.067-6.4C79.807,470.4,81.94,467.2,80.873,464z"/>
<path style="fill:#425A6B;" d="M112.873,480c-2.133-6.4-6.4-9.6-6.4-9.6s1.067,3.2,1.067,7.467s-4.267,4.267-8.533,1.067
	c-4.267-3.2-7.467-2.133-7.467-2.133c0-1.067-2.133-6.4-4.267-8.533c-2.133-1.067-5.333,0-8.533,1.067
	c-2.133,1.067-3.2,2.133-3.2,4.267v7.467c0,10.667-9.6,14.933-9.6,14.933s-3.2,1.067-6.4,5.333c-3.2,4.267,1.067,9.6,1.067,9.6
	h5.333l26.667-5.333l20.267-9.6l1.067-7.467C113.94,487.467,115.007,486.4,112.873,480z"/>
<path style="fill:#E8EAE8;" d="M61.673,510.933c0,0,3.2,0,3.2-6.4l5.333-3.2c0,0,0,5.333,8.533,5.333s13.867-4.267,13.867-4.267
	s3.2-4.267,8.533-5.333c0,0,13.867-6.4,12.8-9.6c0,0,2.133,5.333,3.2,6.4c1.067,1.067,1.067,4.267,0,5.333
	c-2.133,1.067-7.467,4.267-11.733,5.333c-4.267,1.067-6.4,1.067-9.6,3.2C92.607,508.8,79.807,514.133,61.673,510.933z"/>
<g>
	<path style="fill:#344A5E;" d="M92.607,476.8c0-1.067-2.133-6.4-4.267-8.533c-2.133-1.067-5.333,0-8.533,1.067
		c-2.133,1.067-3.2,2.133-3.2,4.267v7.467c0,10.667-9.6,14.933-9.6,14.933s-1.067,0-1.067,1.067c6.4,3.2,10.667,1.067,13.867-2.133
		c3.2-3.2,6.4-6.4,9.6-8.533c3.2-2.133,6.4-4.267,9.6-6.4C95.807,475.733,92.607,476.8,92.607,476.8z"/>
</g>
<path style="fill:#425A6B;" d="M106.473,349.867c0,0,18.133-4.267,38.4,28.8c0,0,7.467,9.6,6.4,16
	c-1.067,6.4,2.133,8.533,2.133,8.533s2.133,8.533-2.133,10.667c0,0,5.333-2.133,7.467-6.4s12.8-14.933,12.8-14.933
	s5.333,7.467,11.733,8.533c6.4,2.133,22.4,16,22.4,16l22.4-32c0,0,18.133-30.933,28.8-28.8c0,0-6.4-5.333-11.733-4.267
	c0,0-3.2,0-3.2-2.133c0-3.2-5.333-4.267-5.333-4.267s-2.133,0-2.133-2.133c0-1.067-4.267-6.4-7.467-7.467
	c-3.2-1.067-2.133-2.133-2.133-2.133s-6.4-10.667-14.933-11.733c0,0,2.133,4.267-2.133,10.667
	c-5.333,6.4-26.667,14.933-26.667,14.933s-16,4.267-32-1.067S127.807,332.8,127.807,332.8s-4.267,2.133-3.2,4.267
	c1.067,2.133-1.067,1.067-1.067,1.067s-3.2,1.067-3.2,3.2c0,2.133-3.2,2.133-3.2,2.133S116.073,347.733,106.473,349.867z"/>
<path style="fill:#CED6E0;" d="M425.407,496c0,0,0,8.533,11.733,6.4s14.933-6.4,14.933-6.4s7.467,0,7.467-3.2h-7.467l-18.133,5.333
	L425.407,496z"/>
<g>
	<path style="fill:#F3F3F3;" d="M399.807,471.467c0,0,11.733-11.733,11.733-16l17.067,9.6l3.2,14.933l-8.533,8.533l-3.2-1.067
		C417.94,488.533,405.14,474.667,399.807,471.467z"/>
	<path style="fill:#F3F3F3;" d="M424.34,492.8c0,0,2.133,8.533,7.467,7.467c5.333-1.067,7.467-3.2,7.467-3.2s5.333-3.2,8.533-3.2
		c3.2,1.067,16,0,9.6-4.267c-6.4-5.333-18.133-1.067-18.133-1.067L424.34,492.8z"/>
</g>
<path style="fill:#425A6B;" d="M415.807,478.933c0-2.133,1.067-3.2,4.267-3.2c0,0,4.267-1.067,2.133-3.2
	c-2.133-2.133-7.467-5.333-4.267-9.6c2.133-3.2,7.467-3.2,10.667-3.2c2.133,0,3.2,1.067,4.267,2.133
	c2.133,2.133,4.267,5.333,4.267,6.4c0,0,4.267,1.067,7.467,4.267c3.2,3.2,7.467,6.4,8.533,7.467c1.067,0,7.467,5.333,5.333,10.667
	c0,0-6.4,1.067-10.667,1.067c-4.267,0-10.667,3.2-10.667,3.2s-7.467,4.267-11.733-1.067c-2.133-2.133-4.267-4.267-6.4-6.4
	C415.807,485.333,414.74,482.133,415.807,478.933z"/>
<g>
</g>
<g>
</g>
<g>
</g>
<g>
</g>
<g>
</g>
<g>
</g>
<g>
</g>
<g>
</g>
<g>
</g>
<g>
</g>
<g>
</g>
<g>
</g>
<g>
</g>
<g>
</g>
<g>
</g>
</svg>
