<?xml version="1.0" encoding="iso-8859-1"?>
<!-- Generator: Adobe Illustrator 19.0.0, SVG Export Plug-In . SVG Version: 6.00 Build 0)  -->
<svg version="1.1" id="Capa_1" xmlns="http://www.w3.org/2000/svg" xmlns:xlink="http://www.w3.org/1999/xlink" x="0px" y="0px"
	 viewBox="0 0 513.251 513.251" style="enable-background:new 0 0 513.251 513.251;" xml:space="preserve">
<g>
	<path style="fill:#FFD15C;" d="M59.826,423.949c0,0-8.533,5.333-8.533,11.733c0,5.333,0,8.533-2.133,9.6
		c-2.133,0-6.4,1.067-8.533,0s-6.4,1.067-7.467,2.133c0,1.067-4.267,8.533-11.733,8.533c0,0-1.067-1.067-2.133,0
		c-1.067,1.067-12.8,3.2-14.933,1.067c-2.133-2.133-3.2-6.4,1.067-8.533l0,0c2.133,0,5.333-1.067,6.4-3.2
		c3.2-3.2,8.533-8.533,11.733-13.867c5.333-7.467,20.267-17.067,27.733-19.2L59.826,423.949z"/>
	<path style="fill:#FFD15C;" d="M365.959,410.082l1.067,18.133c0,0,4.267,4.267,8.533,6.4c3.2,1.067,14.933,11.733,14.933,11.733
		s3.2,3.2,5.333,4.267c2.133,1.067,4.267,4.267,4.267,4.267l4.267,3.2c0,0-2.133,8.533-10.667,3.2c0,0-3.2-2.133-5.333-2.133
		c-2.133,0-7.467,0-12.8-4.267c0,0-5.333-1.067-11.733,0c-6.4,1.067-21.333,1.067-24.533-5.333c-3.2-6.4,1.067-16,1.067-16
		s4.267-10.667,4.267-17.067C346.759,409.015,365.959,410.082,365.959,410.082z"/>
</g>
<path style="fill:#F26F5A;" d="M284.892,261.815c0,0,3.2,12.8,4.267,13.867c2.133,1.067,49.067,12.8,68.267,20.267
	c18.133,7.467,32,18.133,32,18.133s6.4,5.333,4.267,13.867c-3.2,8.533-8.533,19.2-8.533,19.2s-1.067,19.2-9.6,33.067
	c-8.533,14.933-9.6,42.667-9.6,42.667s-18.133,2.133-22.4-3.2c0,0,4.267-21.333,2.133-32c-2.133-10.667,0-35.2,11.733-48
	c0,0-14.933-8.533-23.467-5.333c-14.933,4.267-49.067-9.6-66.133-16c0,0-24.533-6.4-40.533,2.133s-43.733,24.533-48,29.867
	c-5.333,5.333-29.867,24.533-35.2,25.6c-5.333,1.067-14.933,8.533-18.133,12.8s-22.4,18.133-32,20.267
	c-9.6,3.2-33.067,20.267-33.067,20.267s-13.867-9.6-13.867-16c0,0,28.8-22.4,30.933-26.667c3.2-5.333,23.467-21.333,35.2-23.467
	c10.667-2.133,26.667-24.533,32-32c1.067-2.133,2.133-3.2,4.267-5.333c8.533-9.6,34.133-39.467,46.933-50.133
	c0,0-1.067-13.867,5.333-17.067C208.092,253.282,284.892,261.815,284.892,261.815z"/>
<g>
	<path style="fill:#F5B54C;" d="M298.759,137.015c-8.533-2.133-22.4-3.2-26.667-6.4c-5.333-2.133-4.267-22.4-4.267-22.4v-5.333
		h-29.867c0,0,0,11.733,0,14.933c0,3.2,1.067,8.533-4.267,12.8c-5.333,4.267-16,6.4-16,6.4c-7.467,0-13.867,2.133-18.133,4.267
		v11.733h9.6v28.8l7.467,12.8l62.933,8.533l19.2-25.6c1.067-3.2,2.133-3.2,3.2-4.267v-37.333
		C301.959,137.015,300.892,137.015,298.759,137.015z"/>
	<path style="fill:#F5B54C;" d="M276.359,193.549l24.533-17.067c0,0,6.4-8.533,19.2-10.667c11.733-3.2,28.8-7.467,34.133-10.667
		c5.333-3.2,35.2-10.667,46.933-11.733c10.667-1.067,43.733-8.533,54.4-16c0,0,5.333-2.133,6.4-1.067c1.067,0,1.067,7.467,16,6.4
		l5.333,1.067l4.267,3.2c0,0,3.2-3.2,0-6.4c0,0-1.067-1.067-2.133-1.067c-1.067,0-6.4-1.067-6.4-1.067s-2.133-1.067,2.133-3.2
		c5.333-1.067,9.6-3.2,9.6-3.2s5.333,0,7.467-1.067c0,0,5.333,0,7.467-2.133c0,0,8.533,0,7.467-5.333h-7.467
		c0,0-25.6,2.133-29.867,1.067c-4.267-1.067-17.067-2.133-25.6,0c-8.533,2.133-32,6.4-39.467,6.4s-22.4,2.133-27.733,4.267
		c-5.333,2.133-13.867,3.2-14.933,3.2c-1.067,0-17.067,3.2-23.467,5.333s-20.267,1.067-20.267,1.067s-23.467,1.067-30.933,1.067"/>
	<path style="fill:#F5B54C;" d="M235.826,195.682l-24.533-17.067c0,0-6.4-8.533-19.2-10.667c-11.733-3.2-28.8-7.467-34.133-10.667
		c-5.333-3.2-35.2-10.667-46.933-11.733c-10.667-1.067-43.733-8.533-54.4-16c0,0-5.333-2.133-6.4-1.067c-1.067,0-1.067,7.467-16,6.4
		l-5.333,1.067l-3.2,3.2c0,0-3.2-3.2,0-6.4c0,0,1.067-1.067,2.133-1.067c1.067,0,6.4-1.067,6.4-1.067s2.133-1.067-2.133-3.2
		c-5.333-1.067-9.6-3.2-9.6-3.2s-5.333,0-7.467-1.067c0,0-5.333,0-7.467-2.133c0,0-8.533,0-7.467-5.333h7.467
		c0,0,25.6,2.133,29.867,1.067s17.067-2.133,25.6,0s32,6.4,39.467,6.4c7.467,0,22.4,2.133,27.733,4.267
		c5.333,2.133,13.867,3.2,14.933,3.2s17.067,3.2,23.467,5.333s20.267,1.067,20.267,1.067s23.467,1.067,30.933,1.067"/>
</g>
<path style="fill:#FFD15C;" d="M272.092,96.482c0,10.667-8.533,26.667-20.267,26.667c-10.667,0-20.267-14.933-20.267-26.667
	c0-2.133-1.067-5.333-2.133-9.6c0,1.067-2.133,1.067-2.133,0c0-2.133-1.067-5.333,0-7.467v-1.067
	c-2.133-10.667,0-20.267,23.467-20.267C277.426,58.082,272.092,84.749,272.092,96.482z"/>
<path style="fill:#425A6B;" d="M266.759,53.815c-6.4-3.2-11.733-4.267-17.067-3.2c-11.733,2.133-21.333,10.667-24.533,22.4
	c-1.067,6.4-1.067,13.867,5.333,22.4c0,0-2.133-8.533-1.067-12.8c1.067-4.267,2.133-6.4,2.133-6.4s0,2.133,1.067,5.333
	c0,0-1.067-7.467,1.067-8.533c0,0,0,7.467,2.133,10.667c0-6.4,1.067-11.733,3.2-16c0,0,13.867,4.267,18.133,9.6
	c4.267,6.4,10.667,9.6,10.667,9.6s3.2,2.133,4.267,5.333c0,0,4.267-4.267,6.4-4.267C279.559,86.882,282.759,64.482,266.759,53.815z"
	/>
<ellipse transform="matrix(0.9481 -0.3179 0.3179 0.9481 -17.6283 77.8539)" style="fill:#FFD15C;" cx="229.728" cy="92.94" rx="4.267" ry="8.533"/>
<g>
	<path style="fill:#425A6B;" d="M236.892,64.482c0,0,1.067,0,3.2,1.067c1.067,0,2.133,1.067,3.2,2.133
		c1.067,1.067,2.133,1.067,4.267,2.133c1.067,0,1.067,1.067,2.133,1.067c1.067,0,1.067,1.067,2.133,1.067l1.067,1.067l1.067,1.067
		l1.067,1.067c0,0,0,1.067,1.067,1.067l1.067,1.067c0,0,0,0-1.067-1.067c0,0,0-1.067-1.067-1.067l-1.067-1.067l-1.067-1.067
		l-1.067-1.067c-1.067,0-1.067-1.067-2.133-1.067c-1.067,0-1.067-1.067-2.133-1.067c-1.067-1.067-2.133-1.067-4.267-2.133
		c-1.067-1.067-2.133-1.067-3.2-1.067C237.959,65.549,236.892,65.549,236.892,64.482L236.892,64.482z"/>
	<path style="fill:#425A6B;" d="M261.426,74.082L261.426,74.082c0,1.067,0,1.067,0,1.067c0,1.067,0,2.133,1.067,3.2
		c1.067,1.067,1.067,2.133,3.2,4.267c1.067,0,2.133,1.067,3.2,3.2c1.067,1.067,1.067,1.067,2.133,2.133c0,0,0,1.067,1.067,1.067
		c0,0,0,0,0,1.067c0,0,0,0,0,1.067c0,2.133,0,3.2,0,5.333c0,1.067,0,1.067,0,2.133c0,1.067,0,1.067-1.067,1.067v1.067l0,0l0,0
		c0,0,0,0,0-1.067v-1.067c0-1.067,0-1.067,0-2.133c0-1.067,0-3.2,0-4.267c0,0,0,0,0-1.067c0,0,0,0,0-1.067c0,0,0-1.067-1.067-1.067
		c0-1.067-1.067-1.067-2.133-2.133c-1.067-1.067-3.2-2.133-4.267-4.267c-1.067-1.067-2.133-2.133-3.2-4.267
		c-1.067-1.067-1.067-2.133-1.067-3.2v-1.067l0,0H261.426z"/>
	<path style="fill:#425A6B;" d="M231.559,70.882L231.559,70.882C230.492,70.882,230.492,70.882,231.559,70.882
		C230.492,70.882,230.492,70.882,231.559,70.882c-1.067,1.067-1.067,2.133-1.067,3.2c0,1.067,0,2.133,0,4.267
		c0,1.067,0,1.067,0,2.133s0,1.067,0,2.133v1.067v1.067c0,1.067,0,1.067,1.067,2.133c1.067,1.067,1.067,2.133,2.133,3.2
		c0,1.067,1.067,2.133,1.067,3.2v1.067l0,0l0,0c0,0,0,0,0-1.067s0-1.067-1.067-2.133c0-1.067-1.067-2.133-2.133-3.2
		c0-1.067-1.067-1.067-1.067-2.133v-1.067v-1.067c0-1.067,0-1.067,0-2.133s0-1.067,0-2.133s0-3.2,0-4.267s0-2.133,0-3.2l0,0l0,0l0,0
		L231.559,70.882z"/>
</g>
<ellipse transform="matrix(0.3178 -0.9482 0.9482 0.3178 99.9402 325.7357)" style="fill:#FFD15C;" cx="276.337" cy="93.415" rx="8.533" ry="4.266"/>
<g>
	<path style="fill:#425A6B;" d="M261.426,74.082L261.426,74.082c0,1.067,0,1.067,0,1.067c0,1.067,0,2.133,1.067,3.2
		c1.067,1.067,1.067,2.133,3.2,4.267c1.067,0,2.133,1.067,3.2,3.2c1.067,1.067,1.067,1.067,2.133,2.133c0,0,0,1.067,1.067,1.067
		c0,0,0,0,0,1.067c0,0,0,0,0,1.067c0,2.133,0,3.2,0,5.333c0,1.067,0,1.067,0,2.133c0,1.067,0,1.067-1.067,1.067v1.067l0,0l0,0
		c0,0,0,0,0-1.067v-1.067c0-1.067,0-1.067,0-2.133c0-1.067,0-3.2,0-4.267c0,0,0,0,0-1.067c0,0,0,0,0-1.067c0,0,0-1.067-1.067-1.067
		c0-1.067-1.067-1.067-2.133-2.133c-1.067-1.067-3.2-2.133-4.267-4.267c-1.067-1.067-2.133-2.133-3.2-4.267
		c-1.067-1.067-1.067-2.133-1.067-3.2v-1.067l0,0H261.426z"/>
	<path style="fill:#425A6B;" d="M231.559,70.882L231.559,70.882C230.492,70.882,230.492,70.882,231.559,70.882
		C230.492,70.882,230.492,70.882,231.559,70.882c-1.067,1.067-1.067,2.133-1.067,3.2c0,1.067,0,2.133,0,4.267
		c0,1.067,0,1.067,0,2.133s0,1.067,0,2.133v1.067v1.067c0,1.067,0,1.067,1.067,2.133c1.067,1.067,1.067,2.133,2.133,3.2
		c0,1.067,1.067,2.133,1.067,3.2v1.067l0,0l0,0c0,0,0,0,0-1.067s0-1.067-1.067-2.133c0-1.067-1.067-2.133-2.133-3.2
		c0-1.067-1.067-1.067-1.067-2.133v-1.067v-1.067c0-1.067,0-1.067,0-2.133s0-1.067,0-2.133s0-3.2,0-4.267s0-2.133,0-3.2l0,0l0,0l0,0
		L231.559,70.882z"/>
</g>
<path style="fill:#E8EAE8;" d="M205.959,173.282c0,0,10.667-9.6,11.733-18.133c1.067-8.533-1.067-18.133-1.067-18.133
	c0-1.067,8.533-2.133,8.533-1.067c0,0-4.267,22.4,4.267,30.933c8.533,7.467,19.2,6.4,19.2,6.4s21.333,2.133,25.6-14.933
	s6.4-24.533,7.467-24.533c0-1.067,7.467,1.067,7.467,1.067s-8.533,12.8-5.333,23.467s11.733,18.133,17.067,18.133l-4.267,8.533
	l-7.467,26.667c0,0,0,6.4-1.067,9.6c0,0-2.133,2.133,0,4.267c2.133,2.133-1.067,6.4-1.067,6.4s1.067,29.867,3.2,35.2
	c0,0-18.133,11.733-38.4,7.467c-21.333-4.267-49.067-18.133-49.067-18.133s0-3.2,1.067-4.267c0,0,1.067-8.533,5.333-12.8
	C211.292,215.949,212.359,192.482,205.959,173.282z"/>
<g>
</g>
<g>
</g>
<g>
</g>
<g>
</g>
<g>
</g>
<g>
</g>
<g>
</g>
<g>
</g>
<g>
</g>
<g>
</g>
<g>
</g>
<g>
</g>
<g>
</g>
<g>
</g>
<g>
</g>
</svg>
