<?xml version="1.0" encoding="iso-8859-1"?>
<!-- Generator: Adobe Illustrator 19.0.0, SVG Export Plug-In . SVG Version: 6.00 Build 0)  -->
<svg version="1.1" id="Capa_1" xmlns="http://www.w3.org/2000/svg" xmlns:xlink="http://www.w3.org/1999/xlink" x="0px" y="0px"
	 viewBox="0 0 563.082 563.082" style="enable-background:new 0 0 563.082 563.082;" xml:space="preserve">
<path style="fill:#344A5E;" d="M371.082,76.272c0,0-26.667,8.533-32,19.2C334.815,107.206,391.348,100.806,371.082,76.272z"/>
<path style="fill:#F26F5A;" d="M8.415,524.273l-7.467-9.6c0,0,4.267-7.467,9.6-9.6c5.333-2.133,19.2-21.333,19.2-21.333
	s32,7.467,34.133,14.933c2.133,7.467-4.267,8.533-4.267,8.533S19.081,524.273,8.415,524.273z"/>
<path style="fill:#CED6E0;" d="M0.948,514.672c0,0,20.267,7.467,35.2,0s9.6-6.4,19.2-9.6c9.6-3.2,9.6-5.333,8.533-7.467
	c0,0,2.133,5.333,1.067,7.467c-1.067,2.133-6.4,4.267-9.6,5.333s-10.667,4.267-12.8,6.4c-2.133,2.133-8.533,7.467-19.2,8.533
	c-11.733,2.133-19.2,0-22.4-3.2C-1.185,520.006,0.948,514.672,0.948,514.672z"/>
<path style="fill:#F26F5A;" d="M325.215,489.073c0,0,8.533,14.933,13.867,20.267c5.333,5.333,16,14.933,16,18.133
	s-2.133,4.267-2.133,4.267s-30.933,0-37.333-7.467c-6.4-6.4-20.267-10.667-20.267-10.667L325.215,489.073z"/>
<path style="fill:#CED6E0;" d="M297.481,512.539c0,0,4.267,3.2,11.733,5.333c0,0,4.267,1.067,7.467,5.333s25.6,9.6,38.4,4.267
	c1.067,2.133,1.067,4.267,0,6.4c0,0-11.733,6.4-26.667,1.067c-5.333-2.133-9.6-5.333-13.867-9.6c-1.067-1.067-3.2-3.2-6.4-4.267
	c-6.4-2.133-12.8-3.2-14.933-9.6h4.267V512.539z"/>
<path style="fill:#425A6B;" d="M156.681,150.939l-29.867,5.333c0,0-30.933,39.467-34.133,76.8
	c-4.267,38.4-14.933,99.2-24.533,110.933c-9.6,11.733-23.467,78.933-23.467,78.933l-3.2,45.867c0,0-13.867,3.2-17.067,10.667
	c0,0,0,5.333,1.067,7.467c0,0,8.533-3.2,16,2.133c7.467,5.333,21.333,9.6,23.467,8.533c0,0,21.333-43.733,27.733-66.133
	c7.467-22.4,28.8-87.467,28.8-87.467s19.2-64,23.467-73.6c4.267-9.6,8.533-25.6,8.533-25.6s6.4-10.667,14.933-5.333
	c8.533,5.333,24.533,51.2,24.533,51.2s17.067,53.333,22.4,66.133s34.133,75.733,34.133,75.733s16,40.533,22.4,45.867
	c5.333,5.333,13.867,16,17.067,26.667c2.133,10.667,9.6,17.067,14.933,13.867c5.333-3.2,8.533-13.867,17.067-17.067
	s10.667-3.2,10.667-3.2s-1.067-9.6-10.667-24.533c-9.6-13.867-16-20.267-16-20.267s-4.267-19.2-8.533-32s-22.4-49.067-28.8-58.667
	c-7.467-8.533-13.867-27.733-13.867-27.733s-3.2-39.467-8.533-70.4c-6.4-30.933-9.6-65.067-9.6-65.067L156.681,150.939z"/>
<path style="fill:#344A5E;" d="M384.948,137.072c4.267,23.467,5.333,49.067,2.133,72.533c-2.133-3.2-4.267-7.467-6.4-10.667
	c1.067,9.6,1.067,20.267-1.067,29.867c-1.067,3.2-1.067,5.333-3.2,8.533c-2.133,2.133-4.267,4.267-7.467,3.2
	c5.333-5.333,4.267-13.867,2.133-20.267c-2.133-7.467-5.333-13.867-5.333-21.333c-1.067,7.467-2.133,14.933-2.133,22.4
	c-5.333-8.533-7.467-19.2-5.333-28.8c-4.267,6.4-5.333,13.867-3.2,20.267c-6.4-6.4-9.6-18.133-5.333-26.667
	c2.133-4.267,4.267-7.467,5.333-11.733c1.067-4.267-1.067-9.6-3.2-13.867c-2.133-4.267-5.333-8.533-7.467-12.8
	c-4.267-9.6-4.267-22.4,2.133-32c6.4-9.6,17.067-14.933,28.8-14.933c2.133,0,5.333,0,7.467,2.133c2.133,1.067,3.2,4.267,1.067,6.4"
	/>
<path style="fill:#F5B54C;" d="M366.815,137.072l-10.667,1.067c-4.267,1.067-7.467,4.267-7.467,8.533c0,9.6-1.067,25.6-3.2,37.333
	c-3.2,18.133-7.467,27.733-13.867,36.267c-6.4,9.6-14.933,33.067-16,39.467c-1.067,6.4,0,25.6-5.333,38.4
	c-5.333,12.8-13.867,61.867-16,66.133c-1.067,4.267-2.133,21.333-2.133,21.333s-3.2,20.267,0,28.8l-3.2,3.2v-4.267l-4.267,1.067
	c0,0-3.2-16-3.2-20.267c0,0,0,6.4-3.2,6.4c-3.2,0-2.133-4.267-2.133-4.267s-1.067-4.267-1.067-7.467c0,0-5.333-7.467-3.2-12.8
	c1.067-5.333,4.267-13.867,9.6-17.067c0,0,4.267-21.333,2.133-38.4c-2.133-18.133-2.133-48,5.333-66.133
	c8.533-18.133,10.667-33.067,10.667-33.067s5.333-24.533,9.6-32l-17.067-2.133l-13.867-54.4l-7.467-58.667c0,0,16-6.4,32-7.467
	c16-1.067,34.133-11.733,34.133-11.733s43.733-19.2,53.333-21.333c9.6-2.133,27.733-8.533,41.6-7.467
	c12.8,2.133,39.467,7.467,51.2,10.667c11.733,4.267,29.867,8.533,29.867,8.533s21.333,11.733,25.6,12.8c0,0,6.4,8.533,14.933,13.867
	c8.533,4.267,9.6,5.333,9.6,5.333l-3.2,4.267c0,0-13.867-4.267-21.333-9.6c-7.467-5.333-22.4-5.333-30.933-13.867
	c0,0-28.8-4.267-40.533-3.2c-11.733,1.067-35.2-4.267-35.2-4.267s-10.667-1.067-14.933,1.067
	c-4.267,2.133-24.533,17.067-50.133,23.467c0,0-10.667,13.867-20.267,18.133l-2.133,1.067c0,0,5.333,1.067,11.733-3.2l24.533-7.467
	L366.815,137.072z"/>
<path style="fill:#FFD15C;" d="M415.881,117.872c0,0-5.333,7.467-7.467,7.467c0,0-3.2,3.2-4.267,5.333
	c-1.067,2.133-16,14.933-23.467,16c-3.2,1.067-5.333,1.067-7.467,2.133c-3.2,2.133-7.467,1.067-10.667-1.067
	c-2.133-2.133-5.333-4.267-6.4-8.533c-3.2-9.6-5.333-40.533,11.733-56.533C386.015,67.739,423.348,98.672,415.881,117.872z"/>
<path style="fill:#425A6B;" d="M414.815,128.539C414.815,128.539,415.881,129.606,414.815,128.539
	c4.267-4.267,6.4-13.867,6.4-14.933c-1.067,5.333-5.333,9.6-8.533,11.733c-2.133-3.2-4.267-8.533-6.4-13.867
	c-2.133-5.333-6.4-8.533-12.8-10.667c-1.067-3.2-1.067-7.467-1.067-9.6c0,1.067-1.067,4.267-1.067,9.6
	c-3.2-1.067-6.4-2.133-10.667-4.267c-1.067-5.333,0-10.667,0-10.667c-2.133,2.133-3.2,6.4-5.333,8.533c0,0-1.067,0-1.067-1.067
	c-17.067-7.467-12.8-19.2-12.8-19.2l29.867-16c0,0,20.267,7.467,32,28.8C437.215,113.606,414.815,128.539,414.815,128.539z"/>
<path style="fill:#F5B54C;" d="M403.082,30.406c-5.333,1.067-9.6,2.133-12.8,3.2c-8.533,2.133-38.4,14.933-49.067,19.2h18.133
	v33.067c4.267-4.267,7.467-8.533,7.467-8.533c14.933-4.267,27.733-10.667,36.267-16V30.406z"/>
<ellipse transform="matrix(0.3008 -0.9537 0.9537 0.3008 165.6011 410.3382)" style="fill:#FFD15C;" cx="362.644" cy="92.232" rx="12.8" ry="6.4"/>
<path style="fill:#E8EAE8;" d="M351.882,140.272c-2.133,1.067-4.267,4.267-4.267,7.467c0,2.133,0,4.267,0,6.4l0,0
	c-1.067,5.333-9.6,14.933-14.933,19.2c-5.333,4.267-19.2,14.933-22.4,16c-2.133,1.067-7.467,0-8.533,0c0,0-5.333,1.067-8.533,5.333
	s-18.133,16-30.933,9.6c-11.733-6.4-13.867-14.933-13.867-14.933s-1.067-1.067-4.267,3.2c-3.2,4.267-7.467,11.733-7.467,13.867
	c0,2.133-9.6,8.533-32,5.333c-22.4-3.2-48-21.333-48-21.333s-26.667-14.933-28.8-33.067c0,0,19.2-22.4,44.8-30.933
	c14.933-5.333,29.867-13.867,38.4-21.333c8.533-6.4,18.133-11.733,27.733-16l32-16c0,0,8.533,25.6,29.867,35.2
	c0,0,16,6.4,26.667,1.067l18.133-12.8v1.067c0,0-18.133,22.4-27.733,24.533c-9.6,2.133-20.267,9.6-25.6,22.4
	c-5.333,13.867-3.2,25.6,0,30.933c3.2,5.333,8.533,11.733,12.8,11.733c0,0,8.533-10.667,11.733-14.933s18.133-17.067,22.4-23.467
	C343.348,145.606,348.681,141.339,351.882,140.272z"/>
<g>
</g>
<g>
</g>
<g>
</g>
<g>
</g>
<g>
</g>
<g>
</g>
<g>
</g>
<g>
</g>
<g>
</g>
<g>
</g>
<g>
</g>
<g>
</g>
<g>
</g>
<g>
</g>
<g>
</g>
</svg>
