<?xml version="1.0" encoding="iso-8859-1"?>
<!-- Generator: Adobe Illustrator 19.0.0, SVG Export Plug-In . SVG Version: 6.00 Build 0)  -->
<svg version="1.1" id="Capa_1" xmlns="http://www.w3.org/2000/svg" xmlns:xlink="http://www.w3.org/1999/xlink" x="0px" y="0px"
	 viewBox="0 0 513.541 513.541" style="enable-background:new 0 0 513.541 513.541;" xml:space="preserve">
<path style="fill:#F05640;" d="M222.104,266.667L222.104,266.667h2.133l67.2-2.133c0,0-2.133-17.067-36.267-16
	c0,0-39.467,5.333-40.533,7.467c-1.067,2.133,1.067,3.2,1.067,3.2l1.067,2.133c0,0,0,1.067,0,2.133
	C217.837,264.533,219.97,266.667,222.104,266.667z"/>
<path style="fill:#FFD15C;" d="M222.104,275.2c0,0,6.4-7.467,2.133-24.533l66.133,2.133c0,0-1.067,10.667,4.267,17.067
	C294.637,269.867,265.837,305.067,222.104,275.2z"/>
<g>
	<circle style="fill:#F5B54C;" cx="254.104" cy="259.2" r="2.133"/>
	<polygon style="fill:#F5B54C;" points="275.437,147.2 273.304,164.267 255.17,164.267 244.504,157.867 243.437,129.067 
		243.437,129.067 273.304,124.8 	"/>
</g>
<g>
	<path style="fill:#FFD15C;" d="M277.57,109.867l-2.133,10.667c0,0-1.067,24.533-17.067,24.533l0,0
		c-16,0-17.067-24.533-17.067-24.533l-2.133-10.667c-1.067-16,18.133-8.533,19.2-8.533l0,0
		C259.437,101.333,278.637,93.867,277.57,109.867z"/>
	<path style="fill:#FFD15C;" d="M281.837,122.667c-1.067,4.267-4.267,6.4-6.4,6.4c-2.133-1.067-2.133-4.267-1.067-8.533
		c2.133-6.4,4.267-6.4,6.4-6.4C282.904,115.2,283.97,116.267,281.837,122.667z"/>
	<path style="fill:#FFD15C;" d="M235.97,122.667c1.067,4.267,4.267,6.4,6.4,6.4c2.133-1.067,2.133-4.267,1.067-8.533
		c-2.133-6.4-4.267-6.4-6.4-6.4C234.904,115.2,233.837,116.267,235.97,122.667z"/>
</g>
<path style="fill:#425A6B;" d="M242.37,122.667c0,0-1.067-8.533,1.067-9.6c2.133-1.067,3.2-4.267,3.2-5.333s2.133-4.267,7.467-2.133
	c5.333,2.133,12.8-1.067,12.8-1.067s6.4-2.133,7.467,1.067s0,5.333,2.133,6.4l1.067,8.533h0c0,0,3.2-9.6,2.133-16
	c-1.067-6.4-5.333-14.933-16-17.067c-10.667-3.2-20.267,6.4-20.267,6.4s-6.4,5.333-5.333,14.933
	C240.237,118.4,241.304,122.667,242.37,122.667L242.37,122.667z"/>
<g>
	<path style="fill:#FFD15C;" d="M294.637,144l2.133-16c0,0,3.2-27.733,17.067-35.2c0-21.333,13.867-42.667,19.2-59.733
		c0,0,1.067-3.2-3.2-5.333c-5.333-3.2-5.333-5.333-5.333-5.333l-1.067-2.133l-2.133-3.2c0,0-2.133-3.2-2.133-4.267
		c0,0,2.133-3.2,4.267-1.067s2.133,3.2,2.133,3.2s3.2,2.133,4.267,2.133c0,0,2.133,0,2.133-2.133c0,0,0-5.333,0-7.467
		c0,0,0-6.4,3.2-6.4c3.2,0,2.133,2.133,2.133,2.133l-1.067,3.2v5.333l0,0c0,0,1.067-5.333,1.067-6.4s0-5.333,2.133-5.333
		c2.133,0,2.133,2.133,2.133,2.133s0,4.267-1.067,4.267s1.067,7.467,1.067,7.467l0,0c0,0,1.067-5.333,1.067-6.4
		s1.067-4.267,1.067-4.267h3.2c0,0,0,5.333,0,7.467s0,4.267-1.067,4.267h1.067L347.97,6.4c1.067,0,2.133,0,2.133,1.067
		S349.037,16,349.037,16s3.2,7.467-1.067,14.933c0,0-2.133,3.2-2.133,8.533c-1.067,5.333-10.667,44.8-13.867,51.2
		c-2.133,5.333-3.2,9.6-3.2,9.6s-6.4,20.267-7.467,27.733c-1.067,6.4-6.4,18.133-6.4,18.133s1.067,5.333-1.067,6.4
		C311.704,155.733,294.637,144,294.637,144z"/>
	<path style="fill:#FFD15C;" d="M223.17,144l-2.133-16c0,0-3.2-27.733-17.067-35.2c4.267-22.4-13.867-42.667-19.2-59.733
		c0,0-1.067-3.2,3.2-5.333c5.333-3.2,5.333-5.333,5.333-5.333l1.067-2.133l2.133-3.2c0,0,2.133-3.2,2.133-4.267
		c0,0-2.133-3.2-4.267-1.067c-2.133,2.133-2.133,3.2-2.133,3.2s-3.2,2.133-4.267,2.133c0,0-2.133,0-2.133-2.133c0,0,0-5.333,0-7.467
		c0,0,0-6.4-3.2-6.4c-3.2,0-2.133,2.133-2.133,2.133v3.2v5.333l0,0c0,0-1.067-5.333-1.067-6.4s0-5.333-2.133-5.333
		c-2.133,0-2.133,2.133-2.133,2.133s0,4.267,1.067,4.267c0,1.067,1.067,6.4,1.067,6.4l0,0c0,0-1.067-5.333-1.067-6.4
		s-1.067-4.267-1.067-4.267h-3.2c0,0,0,5.333,0,7.467s0,4.267,1.067,4.267h-1.067l-1.067-8.533c-1.067,0-2.133,0-2.133,1.067
		s1.067,8.533,1.067,8.533s-3.2,7.467,1.067,14.933c0,0,2.133,3.2,2.133,8.533c1.067,5.333,10.667,44.8,13.867,51.2
		c2.133,5.333,3.2,9.6,3.2,9.6s6.4,20.267,7.467,27.733c0,3.2,2.133,7.467,3.2,10.667c1.067,3.2,2.133,7.467,2.133,11.733
		c0,1.067,1.067,2.133,2.133,3.2C206.104,155.733,223.17,144,223.17,144z"/>
</g>
<path style="fill:#F26F5A;" d="M296.77,128c0,0,7.467,16,9.6,19.2c1.067,3.2,6.4,9.6,9.6,6.4c0,0,1.067-2.133,1.067-5.333
	c0,0,2.133,6.4-1.067,7.467c0,0-6.4,8.533-6.4,11.733c-1.067,4.267-1.067,6.4-1.067,9.6c0,3.2-4.267,12.8-4.267,12.8
	s-5.333,16-5.333,18.133c0,2.133-1.067,12.8-1.067,12.8s-1.067,16-2.133,18.133c0,0,1.067,8.533,0,12.8
	c-1.067,4.267-1.067,11.733-1.067,11.733s-4.267-1.067-7.467-3.2c-3.2-2.133-10.667-1.067-10.667-1.067s-33.067,0-41.6-2.133
	s-19.2-2.133-16,2.133c0,0,2.133,0,1.067,3.2c-1.067,2.133,5.333,4.267,5.333,4.267s-4.267,1.067-5.333-2.133
	c0,0-1.067-2.133-1.067-3.2c0-1.067-1.067-2.133-1.067-2.133s-2.133-1.067-1.067-4.267c0,0,1.067-4.267-1.067-7.467
	c-2.133-3.2-2.133-26.667-2.133-26.667s-1.067-20.267,0-27.733c0,0-3.2-17.067-1.067-24.533c0,0-3.2-11.733-5.333-12.8
	c-2.133-2.133-3.2-3.2-3.2-5.333c0,0,2.133,3.2,3.2,3.2c1.067,0,3.2-2.133,4.267-3.2c0-1.067,1.067-1.067,1.067-2.133
	c3.2-5.333,9.6-19.2,10.667-20.267c0,0,7.467,4.267,9.6,6.4c3.2,3.2,7.467,7.467,7.467,7.467s4.267-2.133,5.333,0
	c0,0,2.133,3.2,3.2,7.467c0,4.267,7.467,5.333,7.467,5.333s9.6,1.067,11.733-2.133c3.2-2.133,4.267-3.2,4.267-3.2
	s2.133-8.533,5.333-9.6c3.2,0,4.267-2.133,7.467-1.067c0,0,5.333-5.333,8.533-6.4C292.504,132.267,296.77,128,296.77,128z"/>
<path style="fill:#FFD15C;" d="M282.904,355.2c0,0,7.467,12.8,8.533,16c1.067,4.267,6.4,19.2,10.667,23.467
	c4.267,4.267,9.6,12.8,10.667,17.067c0,3.2,6.4,21.333,8.533,27.733c3.2,6.4,10.667,28.8,10.667,28.8l14.933-1.067
	c0,0-1.067-26.667-3.2-39.467c-1.067-12.8-9.6-28.8-9.6-28.8s-7.467-20.267-9.6-23.467c0,0-1.067-23.467-6.4-34.133L282.904,355.2z"
	/>
<g>
	<path style="fill:#E8EAE8;" d="M330.904,467.2c0,0,11.733,0,16-3.2l3.2,24.533l-17.067-1.067
		C331.97,487.467,331.97,470.4,330.904,467.2z"/>
	<path style="fill:#E8EAE8;" d="M331.97,498.133c0,0-4.267,8.533,0,11.733c3.2,2.133,10.667,3.2,10.667,3.2s10.667,1.067,12.8,0
		c2.133-1.067,3.2-4.267,3.2-6.4c0-3.2-4.267-2.133-4.267-2.133L331.97,498.133z"/>
</g>
<path style="fill:#425A6B;" d="M331.97,481.067c0,0,0,1.067,0,2.133c0,1.067,1.067,2.133,2.133,1.067
	c1.067-1.067,2.133-1.067,3.2-1.067l1.067-6.4c0-1.067,1.067-2.133,2.133-2.133c1.067,0,3.2,0,5.333,1.067
	c2.133,1.067,4.267,1.067,5.333,1.067s2.133,1.067,1.067,1.067l0,0c0,3.2,0,6.4,0,8.533c1.067,3.2,2.133,7.467,3.2,9.6
	c2.133,3.2,3.2,10.667-2.133,12.8c0,0-7.467,1.067-8.533-4.267l-6.4-1.067c0,0-2.133,3.2-5.333,2.133c-2.133,0-3.2-2.133-2.133-3.2
	c0-2.133,0-6.4,0-9.6C330.904,489.6,331.97,483.2,331.97,481.067z"/>
<path style="fill:#344A5E;" d="M341.57,498.133c0-2.133-4.267-14.933-4.267-14.933l1.067-6.4c0-1.067,1.067-2.133,2.133-2.133
	c1.067,0,3.2,0,5.333,1.067c2.133,1.067,4.267,1.067,5.333,1.067s2.133,1.067,1.067,1.067l0,0c0,3.2,0,5.333,0,8.533
	s0,7.467,1.067,10.667C355.437,503.467,341.57,502.4,341.57,498.133z"/>
<path style="fill:#FFD15C;" d="M239.17,355.2c0,0-7.467,12.8-8.533,16c-1.067,4.267-6.4,19.2-10.667,23.467
	c-4.267,4.267-9.6,12.8-10.667,17.067c0,3.2-6.4,21.333-8.533,27.733c-3.2,6.4-14.933,27.733-14.933,27.733l-14.933-2.133
	c2.133-25.6,6.4-49.067,16-65.067c0,0,7.467-20.267,9.6-23.467c0,0,1.067-23.467,6.4-34.133L239.17,355.2z"/>
<g>
	<path style="fill:#E8EAE8;" d="M186.904,467.2c0,0-11.733-1.067-14.933-4.267l-6.4,23.467l18.133,1.067
		C182.637,486.4,184.77,469.333,186.904,467.2z"/>
	<path style="fill:#E8EAE8;" d="M181.57,497.067c0,0,2.133,9.6-1.067,11.733c-3.2,2.133-10.667,2.133-10.667,2.133
		s-10.667,0-12.8-2.133c-2.133-1.067-2.133-4.267-2.133-7.467c0-3.2,4.267-2.133,4.267-2.133L181.57,497.067z"/>
</g>
<path style="fill:#425A6B;" d="M183.704,481.067c0,0,0,1.067,0,2.133c0,1.067-2.133,1.067-2.133,1.067
	c-1.067-1.067-2.133-2.133-3.2-2.133v-6.4c0-1.067-1.067-2.133-2.133-2.133c-1.067,0-3.2,0-5.333,1.067
	c-2.133,1.067-4.267,1.067-5.333,0c-1.067,0-2.133,0-2.133,1.067l0,0c0,3.2,0,6.4-1.067,8.533c-1.067,3.2-3.2,7.467-4.267,9.6
	c-2.133,3.2-4.267,9.6,0,12.8c0,0,6.4,2.133,9.6-3.2h6.4c0,0,1.067,3.2,4.267,3.2c2.133,0,3.2-1.067,3.2-3.2
	c0-2.133,0-6.4,1.067-8.533C183.704,488.533,183.704,482.133,183.704,481.067z"/>
<path style="fill:#344A5E;" d="M171.97,496c0-2.133,6.4-14.933,6.4-14.933v-6.4c0-1.067-1.067-2.133-2.133-2.133
	c-1.067,0-3.2,0-5.333,1.067c-2.133,1.067-4.267,1.067-5.333,0c-1.067,0-2.133,0-2.133,1.067l0,0c0,3.2,0,5.333-1.067,8.533
	c0,3.2-1.067,7.467-2.133,10.667C157.037,499.2,170.904,499.2,171.97,496z"/>
<path style="fill:#425A6B;" d="M224.237,268.8c0,0,8.533,9.6,29.867,9.6c22.4-1.067,38.4-8.533,37.333-11.733
	c0,0,3.2,2.133,4.267,6.4c0,0,2.133,3.2,3.2,3.2s1.067,6.4,1.067,7.467c0,2.133,2.133,4.267,2.133,4.267s2.133,4.267,2.133,7.467
	s0,1.067,0,1.067s2.133,7.467,4.267,9.6c2.133,3.2,12.8,37.333,12.8,37.333C308.504,352,290.37,358.4,269.037,361.6
	c-6.4-7.467-10.667-17.067-12.8-26.667c-3.2,12.8-9.6,21.333-18.133,26.667c-13.867,1.067-26.667-2.133-39.467-8.533l6.4-28.8
	c0,0-1.067-2.133,1.067-2.133c1.067,0,1.067-3.2,1.067-4.267s1.067-4.267,2.133-4.267c1.067,0,1.067-1.067,1.067-2.133
	c0-2.133,2.133-4.267,2.133-4.267S214.637,280.533,224.237,268.8z"/>
<g>
</g>
<g>
</g>
<g>
</g>
<g>
</g>
<g>
</g>
<g>
</g>
<g>
</g>
<g>
</g>
<g>
</g>
<g>
</g>
<g>
</g>
<g>
</g>
<g>
</g>
<g>
</g>
<g>
</g>
</svg>
