<svg id="Layer_1_1_" enable-background="new 0 0 256 256" height="512" viewBox="0 0 256 256" width="512" xmlns="http://www.w3.org/2000/svg"><path d="m164.44 131.423-5.44-35.09-1.806-28.644c-.319-5.064-3.642-9.443-8.433-11.114l-2.011-.701-.173 16.821 2.09 27.304 10.333 33.001-4.95 16.964c-.212 1.308.672 2.541 1.978 2.761.986.166 1.972-.295 2.478-1.158l3.117-5.325c2.615-4.469 3.611-9.703 2.817-14.819z" fill="#f5d3a6"/><path d="m109.146 72.696-.173-16.821-2.011.701c-4.791 1.671-8.114 6.05-8.433 11.114l-1.806 28.644-5.44 35.09c-.793 5.117.202 10.35 2.818 14.819l3.117 5.325c.505.863 1.491 1.324 2.478 1.158 1.306-.22 2.19-1.453 1.978-2.761l-4.951-16.965 10.333-33z" fill="#f5d3a6"/><path d="m145.181 92.701 2.569-21.451v-15.375l-14.452-2.875-10.942-.016-14.383 2.891v15.375l2.569 21.451c.531 3.192.719 6.418.606 9.63h33.429c-.114-3.212.073-6.437.604-9.63z" fill="#7f8b4b"/><path d="m146.837 115.398c-1.362-4.244-2.105-8.642-2.261-13.066h-33.429c-.156 4.424-.899 8.822-2.261 13.066-.047.147-.086.296-.132.443h38.214c-.045-.148-.084-.297-.131-.443z" fill="#f5d3a6"/><path d="m108.994 193.421c.156 7.613.934 15.2 2.326 22.686l3.537 19.013-2.125 5.981-2.516 4.323c-.875 1.503-.205 3.432 1.413 4.069l3.449 1.358c.23.09 5.524.732 5.524.732 1.743.2 3.248-1.212 3.16-2.964l-.416-8.213-1.894-12.668 1.251-9.321c1.196-8.909 1.529-17.913.995-26.885l-.207-3.481-14.606.1z" fill="#f5d3a6"/><path d="m132.023 191.532c-.534 8.973-.201 17.977.995 26.885l1.251 9.321-1.894 12.668-.416 8.213c-.089 1.752 1.417 3.164 3.16 2.964 0 0 5.294-.642 5.524-.732l3.449-1.358c1.618-.637 2.288-2.566 1.413-4.069l-2.516-4.323-2.125-5.981 3.537-19.013c1.393-7.486 2.171-15.073 2.326-22.686l.112-5.484-14.61.1z" fill="#f5d3a6"/><path d="m149.064 131.6c.199-5.335-.515-10.662-2.095-15.759h-38.214c-1.581 5.097-2.294 10.424-2.095 15.759l2.065 48.63.162 7.921 14.606-.1-.281-4.717 4.788-35.334 4.511 35.334-.28 4.704 14.61-.1.158-7.708z" fill="#514654"/><path d="m127.745 10.795c-7.646 0-13.844 7.276-13.844 16.252 0 1.15.103 2.341.297 3.544 1.401-7.235 6.961-12.572 13.548-12.572 6.585 0 12.205 4.928 13.608 12.159.152-1.062.236-2.112.236-3.13 0-8.977-6.199-16.253-13.845-16.253z" fill="#704c0f"/><path d="m121.283 43.617v12.35c0 3.569 2.893 6.462 6.462 6.462s6.462-2.893 6.462-6.462v-12.35z" fill="#f0c792"/><path d="m119.698 13.826c2.268-1.906 5.045-3.031 8.047-3.031 3.019 0 5.811 1.138 8.086 3.064h.006c.129-.582.335-1.239.335-1.86 0-4.654-3.773-8.427-8.427-8.427s-8.427 3.773-8.427 8.427c0 .672.225 1.201.373 1.828h.007z" fill="#704c0f"/><path d="m127.745 18.018c-6.587 0-12.147 5.338-13.548 12.572 1.317 8.187 6.881 16.922 13.548 16.922 6.779 0 12.416-9.032 13.608-17.336-1.402-7.23-7.023-12.158-13.608-12.158z" fill="#f5d3a6"/><g fill="#5e400d"><path d="m122.335 12.083c-.14.07-.277.145-.414.22-1.589 3.197-1.863 6.372-1.83 8.387.088-.068.177-.135.266-.201-.012-2.062.312-5.243 1.978-8.406z"/><path d="m123.468 11.589c-.101.038-.201.078-.301.12-.635 2.939-.451 5.594-.186 7.285.085-.036.17-.069.256-.103-.261-1.702-.435-4.364.231-7.302z"/><path d="m133.283 12.151c1.609 2.562 3.48 6.234 3.709 9.718.077.075.156.147.231.224.03-.026.05-.061.048-.104-.182-3.403-1.932-6.989-3.52-9.59-.153-.086-.311-.168-.468-.248z"/><path d="m133.568 19.399c.106.053.206.116.31.172-.008-.041-.015-.08-.023-.121-.581-2.924-2.687-6.451-4.021-8.471-.118-.021-.239-.036-.358-.053 1.295 1.938 3.47 5.51 4.092 8.473z"/><path d="m135.831 13.859h.006c.078-.355.181-.737.253-1.122-2.321-2.061-5.21-3.285-8.345-3.285-3.131 0-6.018 1.221-8.337 3.279.079.365.193.713.284 1.096h.007c2.268-1.906 5.045-3.031 8.047-3.031 3.019-.001 5.81 1.137 8.085 3.063z"/></g></svg>