<svg id="Layer_1_1_" enable-background="new 0 0 256 256" height="512" viewBox="0 0 256 256" width="512" xmlns="http://www.w3.org/2000/svg"><path d="m106.541 83.256 9.485 7.114c-.343 2.296-2.191 4.148-4.515 5.033-3.427 1.305-7.263-.415-8.568-3.842-1.246-3.274.473-6.848 3.598-8.305z" fill="#704c0f"/><path d="m110.526 92.792c.008-.003.015-.006.023-.009.93-.357 1.01-1.644.165-2.172-2.253-1.406-4.153-3.332-5.179-5.489-.152-.32-.285-.649-.409-.981.431-.343.902-.645 1.416-.885l9.485 7.114c-.037.246-.097.484-.169.718-.028.095-.061.188-.095.281-.045.122-.095.242-.149.361-.125.284-.271.558-.441.82-.001.002-.002.003-.003.005-.824 1.265-2.133 2.267-3.656 2.848-2.274.867-4.87.32-6.714-1.269-1.399-1.205-2.009-2.568-2.2-3.926 1.667 2.566 4.95 3.717 7.926 2.584z" fill="#5e400d"/><path d="m114.873 64.135c3.229-.247 6.725.714 6.725.714l4.697-1.803 1.63 3.11s3.9.552 5.531 1.703c1.861 1.313 3.119 4.692 3.697 6.762.47 1.681.297 3.321-.23 4.89-.681 2.031-1.956 3.945-3.197 5.68-1.322 1.849-3.765 2.865-5.81 3.657-.666.258-1.357.498-2.061.717-3.905-3.254-10.982-25.429-10.982-25.43z" fill="#f0c792"/><path d="m106.622 69.77c1.183-2.534 4.143-4.879 6.894-5.448.439-.091.895-.151 1.356-.186 0 0 7.077 22.176 10.984 25.431-1.907.594-3.917 1.027-5.845 1.189-5.136.431-11.416-3.163-13.631-7.821-1.917-4.033-1.607-9.205.242-13.165z" fill="#704c0f"/><g fill="#5e400d"><path d="m108.99 74.793c1.709-2.996 4.816-4.864 7.448-5.981.084.243.169.49.259.746-2.513 1.078-5.456 2.852-7.035 5.619-1.478 2.59-2.257 5.981-2.667 8.848-.226-.357-.437-.718-.614-1.09-.003-.007-.006-.014-.009-.02.453-2.697 1.241-5.711 2.618-8.122z"/><path d="m116.281 83.356c1.588-1.17 2.891-2.793 3.918-4.402.12.296.24.589.361.881-1.021 1.516-2.288 3.016-3.819 4.144-1.932 1.423-4.142 2.765-6.064 3.848-.229-.165-.453-.334-.672-.509 1.963-1.096 4.274-2.487 6.276-3.962z"/><path d="m111.915 88.639c2.117-.292 4.56-.767 6.513-1.536 1.571-.619 2.95-1.718 4.073-2.866.122.254.243.5.363.742-1.149 1.136-2.546 2.211-4.153 2.844-1.718.677-3.767 1.13-5.661 1.434-.386-.189-.763-.399-1.135-.618z"/></g><path d="m134.163 89.821c3.885-2.026 8.542-1.844 12.277.448 3.725 2.286 7.784 5.355 8.34 8.132.786 3.93-.768 7.861-1.614 9.615-.327.678-.454 1.433-.386 2.183l.944 10.384-21.126 2.113-5.054-18.364c-1.553-5.642 1.043-11.603 6.232-14.309z" fill="#7f8b4b"/><path d="m122.419 209.529c-1.2 3.707-1.836 7.574-1.886 11.47l-.277 21.762-.499 2.994c-.344 2.063.461 4.15 2.101 5.448 1.015.803 2.271 1.241 3.566 1.241h17.242c1.51 0 2.717-1.255 2.659-2.764-.042-1.094-.75-2.051-1.784-2.411l-13.954-4.86s0-4.929 0-14.788c0-8.442 3.999-19.975 5.149-23.117l-10.274-1.284z" fill="#f5d3a6"/><path d="m153.724 120.583-21.126 2.113c-.459 3.839-1.319 7.613-2.55 11.267h20.288c.073-.247.146-.484.219-.704 1.056-3.17 3.169-12.676 3.169-12.676z" fill="#f5d3a6"/><path d="m127.687 139.862-1.458 3.02c-2.347 4.86-2.542 10.483-.537 15.494.945 2.362 1.411 4.887 1.372 7.43l-.381 25.001c-.059 3.864-.694 7.697-1.884 11.374l-.336 1.038 10.274 1.284c.193-.527.308-.826.308-.826l2.993-8.626s4.401-12.323 7.218-23.943c2.817-11.619 3.187-28.344 3.187-28.344s.915-5.487 1.893-8.803h-20.288c-.676 2.007-1.46 3.978-2.361 5.901z" fill="#514654"/><path d="m134.148 112.361c4.855 0 8.79-3.936 8.79-8.791v-14.752c-2.914-.734-6.034-.427-8.775 1.003l-.387.202c-5.189 2.706-7.785 8.667-6.232 14.309l1.817 6.604c1.371.893 3.007 1.425 4.787 1.425z" fill="#727d43"/><path d="m139.992 28.156v69.856c0 4.298-3.484 7.782-7.782 7.782-4.786 0-8.438-4.279-7.686-9.005l5.961-35.359-.534-5.876c-.347-3.813-.19-7.654.466-11.426l2.297-15.972-2.792-8.978c-.572-1.839-.863-3.753-.863-5.679 0-1.313 1.064-2.377 2.377-2.377h.924l2.083-4.829c.499-1.156 1.637-1.905 2.896-1.905 1.657 0 3.032 1.282 3.147 2.936l.456 6.571z" fill="#f5d3a6"/></svg>