<svg id="Layer_1_1_" enable-background="new 0 0 256 256" height="512" viewBox="0 0 256 256" width="512" xmlns="http://www.w3.org/2000/svg"><path d="m63.718 181.032-11.324 5.818c-5.475 2.813-10.422 6.553-14.621 11.054l-18.709 20.053c-1.135.908-2.271 1.817-3.406 2.725-2.55 2.041-5.101 4.081-7.651 6.121-.515.412-1.148.805-1.601 1.279-1.774 1.854-1.474 4.565-1.083 6.873.202 1.192.355 3.449 1.543 4.134 1.001.577 11.398-.23 12.201-1.124.572-.636.765-1.523.86-2.374.301-2.697 1.483-8.834 1.67-9.192l30.292-19.613c3.852-2.494 7.914-4.65 12.138-6.442l17.291-7.336-12.235-14.361z" fill="#f5d3a6"/><path d="m69.083 178.648-5.365 2.385-11.324 5.818c-4.654 2.391-8.92 5.457-12.676 9.085 1.554.255 4.324-.198 9.174-2.079 11.638-4.513 18.7-10.651 21.601-13.553z" fill="#f0c792"/><path d="m104.949 87.392-6.753 10.974-10.974 32.921-10.974 15.194-15.194 24.48-18.374 15.978c-.643.56-.937 1.421-.77 2.257.296 1.479 1.877 2.31 3.263 1.716l9.128-3.912-1.497 2.62c-.604 1.057.483 2.276 1.602 1.797 1.589-.681 2.968-1.774 3.994-3.167l10.251-13.912 21.103-24.48 14.285-23.306c1.168-1.905 2.194-3.893 3.072-5.948l10.542-23.343z" fill="#f5d3a6"/><path d="m19.857 19.711 15.206 2.645-2.331 1.942c-1.235 1.029-.922 3.003.57 3.6.581.232 1.235.197 1.787-.098l11.791-6.289 21.044 4.856c.602.139 1.209.25 1.821.334l17.653 2.407 33.589 25.363 27.987 5.2c-3.652-3.847-7.538-7.476-11.644-10.857-10.163-8.37-20.522-20.248-32.734-25.168-4.24-1.708-8.538-3.383-12.133-4.667-11.818-4.221-45.583-4.221-45.583-4.221l-26.545-1.752c-1.315.039-2.487.837-3.005 2.046-.858 2.004.378 4.285 2.527 4.659z" fill="#f5d3a6"/><path d="m119.773 74.622.703-1.027c3.089-4.515 1.851-10.758-2.631-13.896l-7.077 1.083-5.304 11.583 2.017 5.741c4.402 1.957 9.572.491 12.292-3.484z" fill="#f0c792"/><path d="m152.236 124.725c15.035-1.219 25.811-3.282 33.042-5.14l-9.188-15.168c-4.741 2.731-13.321 7.323-20.774 9.425-7.153 2.017-18.646 1.897-25.785 1.568.122.509.236 1.021.323 1.54.455 2.729.384 5.495-.153 8.172 4.482.45 11.512.497 22.535-.397z" fill="#f5d3a6"/><path d="m155.315 113.842c7.454-2.102 16.034-6.694 20.774-9.425 0 0-12.286-33.988-27.102-44.743-5.762-4.183-28-5.202-28-5.202l-3.143 5.229c4.482 3.137 5.72 9.38 2.631 13.896l-.703 1.027c-2.72 3.975-7.89 5.441-12.292 3.485l-2.532 9.285 17.982 16.697c3.28 3.046 5.564 6.99 6.6 11.321 7.139.327 18.632.447 25.785-1.57z" fill="#7f8b4b"/><path d="m247.819 235.11-17.506-5.856 5.153-50.675c-8.721 4.17-17.671 2.954-21.69 2.053l4.085 49.359-.868 2.804c-.53 1.712-.445 3.556.239 5.212 1.189 2.877 3.995 4.753 7.107 4.753h22.235c2.168 0 3.926-1.758 3.926-3.926 0-1.689-1.079-3.188-2.681-3.724z" fill="#f5d3a6"/><path d="m235.466 178.579 1.637-16.1c.118-1.093-.209-2.187-.907-3.035-5.249-6.375-11.916-11.435-19.468-14.776l-22.209-9.826-9.241-15.256c-7.231 1.858-18.007 3.921-33.042 5.14-11.023.894-18.052.847-22.536.398-.431 2.147-1.156 4.237-2.201 6.195 0 0-4.713 6.954-7.734 9.014l-8.36 5.7c-3.737 2.548-7.293 5.35-10.645 8.387l-21.979 19.919-9.698 4.31 12.235 14.361 4.216-1.789 25.897-10.84c6.911-2.893 13.47-6.566 19.548-10.948l22.29-16.07c10.422 4.133 40.047 15.419 59.765 18.302l.742 8.967c4.018.901 12.969 2.117 21.69-2.053z" fill="#514654"/><path d="m68.933 68.697 12.166 11.264c-.809 3.144-3.646 5.454-7.006 6.349-4.955 1.32-10.042-1.626-11.363-6.582-1.261-4.732 1.646-9.455 6.203-11.031z" fill="#704c0f"/><path d="m73.099 82.537.033-.009c1.345-.363 1.642-2.142.542-2.997-2.932-2.28-5.295-5.234-6.411-8.384-.165-.467-.303-.943-.428-1.424.649-.415 1.348-.767 2.097-1.026l12.166 11.264c-.087.337-.205.659-.338.974-.053.128-.112.253-.172.378-.08.163-.167.323-.259.48-.215.377-.458.737-.732 1.077-.002.002-.003.004-.005.006-1.329 1.641-3.294 2.845-5.497 3.433-3.288.877-6.82-.258-9.155-2.734-1.772-1.878-2.424-3.862-2.494-5.779 1.949 3.813 6.349 5.888 10.653 4.741z" fill="#5e400d"/><path d="m83.282 43.303c4.527.123 9.252 1.965 9.252 1.965l6.794-1.829 1.818 4.561s5.345 1.33 7.447 3.167c2.398 2.095 3.661 6.976 4.167 9.94.41 2.407-.066 4.662-1.025 6.768-1.241 2.727-3.29 5.205-5.267 7.44-2.107 2.381-5.651 3.441-8.609 4.248-.964.263-1.959.496-2.97.7-4.964-5.091-11.607-36.959-11.607-36.96z" fill="#f5d3a6"/><path d="m70.992 49.949c2.012-3.354 6.467-6.189 10.376-6.583.624-.063 1.267-.08 1.914-.063 0 0 6.643 31.868 11.607 36.96-2.738.551-5.596.863-8.302.81-7.207-.142-15.423-6.048-17.831-12.846-2.085-5.885-.908-13.036 2.236-18.278z" fill="#704c0f"/><path d="m73.56 57.278c2.81-3.92 7.402-6.071 11.223-7.245.082.35.165.707.252 1.075-3.652 1.136-8.001 3.18-10.596 6.8-2.43 3.389-4.002 7.993-4.987 11.923-.263-.529-.504-1.062-.696-1.605-.004-.01-.006-.02-.009-.029 1.019-3.685 2.551-7.763 4.813-10.919z" fill="#5e400d"/><path d="m82.466 70.243c2.378-1.398 4.424-3.468 6.086-5.558.124.429.249.853.375 1.278-1.639 1.961-3.618 3.864-5.911 5.213-2.893 1.701-6.161 3.248-8.991 4.477-.295-.262-.582-.53-.862-.805 2.89-1.242 6.305-2.843 9.303-4.605z" fill="#5e400d"/><path d="m75.631 76.96c2.987-.1 6.454-.408 9.281-1.196 2.275-.634 4.352-1.964 6.079-3.398.133.371.265.73.398 1.085-1.762 1.415-3.86 2.708-6.187 3.356-2.488.693-5.403 1.028-8.082 1.178-.51-.319-1.004-.666-1.489-1.025z" fill="#5e400d"/><path d="m128.913 113.329c4.863-1.115 12.288-1.653 20.609-3.358 14.783-3.029 4.348-8.275-9.003-5.554s-17.084-5.764-24.041-12.286c-4.705-4.411-5.231-10.006-5.08-13.172-1.318-.018-2.65-.288-3.917-.852l-2.532 9.285 17.982 16.697c2.744 2.549 4.78 5.733 5.982 9.24z" fill="#727d43"/><g fill="#403742"><path d="m173.87 129.957c-6.087 3.913 20.649 4.885 20.649 4.885l-2.657-4.386c-7.89-1.406-15.435-2.143-17.992-.499z"/><path d="m160.826 153.362 2.174-6.884-9.732 6.884c7.638 3.029 25.588 9.897 42.396 14.486z"/><path d="m203.731 169.882c3.253.743 6.388 1.356 9.302 1.783l-1.337-4.317z"/><path d="m93.534 160.967c7.243-4.615 18.83-12.036 26.422-17.098 11.739-7.826 13.913-4.783 21.304-3.913 6.97.82-5.777-5.319-13.086-10.032-.209.471-.432.937-.676 1.394 0 0-4.713 6.954-7.734 9.014l-8.36 5.7c-3.737 2.548-7.293 5.35-10.645 8.387z"/></g></svg>